<?xml version="1.0" encoding="UTF-8" standalone="no"?>
<!-- Created with Inkscape (http://www.inkscape.org/) -->

<svg
   width="50mm"
   height="50mm"
   viewBox="0 0 50 50"
   version="1.1"
   id="svg5"
   xml:space="preserve"
   inkscape:version="1.2.1 (9c6d41e410, 2022-07-14)"
   sodipodi:docname="englishFlag.svg"
   xmlns:inkscape="http://www.inkscape.org/namespaces/inkscape"
   xmlns:sodipodi="http://sodipodi.sourceforge.net/DTD/sodipodi-0.dtd"
   xmlns="http://www.w3.org/2000/svg"
   xmlns:svg="http://www.w3.org/2000/svg"><sodipodi:namedview
     id="namedview7"
     pagecolor="#ffffff"
     bordercolor="#000000"
     borderopacity="0.25"
     inkscape:showpageshadow="2"
     inkscape:pageopacity="0.0"
     inkscape:pagecheckerboard="0"
     inkscape:deskcolor="#d1d1d1"
     inkscape:document-units="mm"
     showgrid="false"
     inkscape:zoom="1.4324916"
     inkscape:cx="126.35327"
     inkscape:cy="61.780468"
     inkscape:window-width="1920"
     inkscape:window-height="991"
     inkscape:window-x="-9"
     inkscape:window-y="-9"
     inkscape:window-maximized="1"
     inkscape:current-layer="layer1" /><defs
     id="defs2" /><g
     inkscape:label="Layer 1"
     inkscape:groupmode="layer"
     id="layer1"><rect
       style="fill:#000080;fill-opacity:1;stroke-width:0.264583"
       id="rect872"
       width="50"
       height="50"
       x="0.083257541"
       y="4.4650935e-08" /><path
       id="rect872-7"
       style="fill:#ffffff;fill-opacity:1;stroke-width:0.264583"
       d="M 18.420064 -0.012402344 L 18.420064 13.05295 L 5.3888184 0.026871745 L 0.073380534 0.026871745 L 0.073380534 5.4446289 L 13.3165 18.682064 L 0.11110433 18.682064 L 0.11110433 32.182015 L 12.399243 32.182015 L 0.075964355 44.500126 L 0.075964355 49.991264 L 5.3180216 49.991264 L 18.420064 36.894906 L 18.420064 49.987646 L 31.920015 49.987646 L 31.920015 37.277828 L 44.674276 50.026921 L 50.073429 50.026921 L 50.073429 44.692879 L 37.557397 32.182015 L 50.111153 32.182015 L 50.111153 18.682064 L 36.640141 18.682064 L 50.076013 5.2518758 L 50.076013 -0.0082682292 L 44.602962 -0.0082682292 L 31.920015 12.669511 L 31.920015 -0.012402344 L 18.420064 -0.012402344 z " /><path
       id="rect872-5"
       style="fill:#d40000;fill-opacity:1;stroke-width:0.264583"
       d="M 21.380607 0 L 21.380607 21.367171 L 0.079581706 21.367171 L 0.079581706 29.167212 L 21.380607 29.167212 L 21.380607 50.000049 L 29.180648 50.000049 L 29.180648 29.167212 L 50.079631 29.167212 L 50.079631 21.367171 L 29.180648 21.367171 L 29.180648 0 L 21.380607 0 z M 0.050126139 0.026871745 L 0.050126139 3.3667196 L 15.391825 18.704801 L 18.384924 18.704801 L 18.384924 18.078483 L 0.32917887 0.026871745 L 0.050126139 0.026871745 z M 49.49517 0.026871745 L 31.884875 17.633032 L 31.884875 18.704801 L 34.432524 18.704801 L 50.050175 3.0907674 L 50.050175 0.026871745 L 49.49517 0.026871745 z M 17.310055 32.204753 L 0.050126139 49.460547 L 0.050126139 50.026921 L 3.1036865 50.026921 L 18.384924 34.748783 L 18.384924 32.204753 L 17.310055 32.204753 z M 31.884875 32.204753 L 31.884875 35.194234 L 46.720662 50.026921 L 50.050175 50.026921 L 50.050175 49.737016 L 32.513778 32.204753 L 31.884875 32.204753 z " /></g></svg>
