<svg xmlns="http://www.w3.org/2000/svg" viewBox="0 0 100 100"><path d="M50.17 6.04c-.9 0-1.81.14-2.5.41L2.52 24.51c-1.4.55-1.4 1.45 0 2l45.13 18.06c1.4.55 3.63.55 5.02 0l30.57-12.34-33.69-6.94A2.7 2.7 0 1 1 50.78 20L88.6 30.42l9.2-3.9c1.4-.56 1.4-1.46 0-2.01L52.68 6.45c-.7-.27-1.6-.41-2.51-.41zm36.82 24.6-1.97 1.01-1.72 24.53c-.1 1.5 1.2 2.7 2.7 2.7 1.5 0 2.71-1.2 2.71-2.7L87 30.63zm-65.16 7.88v2.78L58.6 64.87A28.33 14 0 0 0 78.5 51.51v-13L53.11 48.68a9.1 9.1 0 0 1-5.88 0l-25.4-10.15zM12.93 41c-2.76-.02-6.58 3.1-9.21 7.67-3.23 5.6-3.7 11.63-.78 13l26.44 12.42c-2.8-1.61-3.68-5.27-.45-10.86 3.22-5.59 6.84-6.65 9.63-5.04L14.58 41.5a2.94 2.94 0 0 0-1.66-.5zm24.44 19.9a6.99 6.99 0 0 0-6.42 3.48 6.99 6.99 0 0 0 2.56 9.55 6.99 6.99 0 0 0 9.54-2.56 6.99 6.99 0 0 0-2.55-9.55 6.99 6.99 0 0 0-3.13-.92zm-35.8 2.05c-.71 1.8.68 4.34 3.3 5.85l49.74 28.72c2.66 1.53 5.6 1.45 6.78-.13L42.98 84.88c-3.8-2.27-5.73-3.41-7.63-4.51-1.9-1.1-3.78-2.15-7.5-4.23L1.8 63.07a3.9 3.9 0 0 1-.23-.12zm49.53 3.42c-2.29.05-4.73 1.58-7.04 5.6-3.23 5.58-2.16 8.96.45 10.85L63.44 96.6c2.61 1.9 7.64-1.58 10.87-7.17 3.12-5.41 3.7-11.3 1.05-12.86l-.27-.14-21.4-9.5a6.02 6.02 0 0 0-2.6-.56zm20.13 11.65c.5 0 .97.11 1.4.35 2.23 1.3 2.08 5.7-.34 9.9-2.42 4.19-6.16 6.52-8.4 5.23-2.23-1.29-2.09-5.7.33-9.9 1.97-3.4 4.81-5.58 7-5.58z"/></svg>