<svg xmlns="http://www.w3.org/2000/svg" viewBox="0 0 64 64"><path d="m27.25.49-3.86 9.89-.61.24-9.7-4.26-6.72 6.72 4.28 9.74-.24.56L.5 27.25v9.5l9.91 3.87.24.56-4.28 9.75 6.72 6.71 9.74-4.28.56.24 3.87 9.91h9.5l3.87-9.91.56-.24 9.74 4.28 6.72-6.71-4.28-9.75.24-.56 9.91-3.87v-9.5l-9.87-3.85 4-10.32-6.72-6.72-9.68 4.25-.65-.27L36.75.49Zm2.34 3.42h4.82l3.52 9.03 3.35 1.39 8.88-3.9 3.4 3.41-3.77 8.6 1.3 3.64 9 3.5v4.83l-9.03 3.52-1.42 3.3 3.93 8.93-3.41 3.4-8.94-3.92L37.96 51l-3.55 9.1h-4.82l-3.55-9.1-3.26-1.35-8.94 3.93-3.4-3.41 3.92-8.94L13 37.96 3.9 34.4V29.6l9.1-3.55 1.36-3.26-3.93-8.94 3.41-3.4 8.86 3.88 3.34-1.3zm2.41 14A14.11 14.11 0 0 0 17.92 32c0 7.76 6.32 14.08 14.08 14.08A14.1 14.1 0 0 0 46.08 32 14.1 14.1 0 0 0 32 17.92Zm0 3.43c5.9 0 10.66 4.75 10.66 10.66 0 5.9-4.75 10.66-10.66 10.66-5.9 0-10.66-4.75-10.66-10.66 0-5.9 4.75-10.66 10.66-10.66Zm21.1.85.11.23v.01z"/></svg>