<svg xmlns="http://www.w3.org/2000/svg" viewBox="0 0 50 50"><path d="M4.08 6.8c-4.7 5.7-3.43 15.1 3.1 21.65l13.99 13.97c6.54 6.54 15.93 7.8 21.65 3.11l-8.39-8.38-.18.18c-1.3 1.3-4.06.6-6.21-1.55l-14.2-14.2c-2.16-2.15-2.85-4.93-1.56-6.22l.19-.18zM7.72 3.15c-1.29 1.29-.96 1.47-1.38 2.73L17.4 16.95c1.26-.42 1.45-.09 2.73-1.37 2.58-2.59 2.8-4.88 1.5-6.17l-7.76-7.77C12.6.35 10.3.57 7.72 3.15ZM34.04 29.47c-1.29 1.29-.96 1.47-1.38 2.73l11.07 11.07c1.26-.42 1.44-.09 2.73-1.38 2.58-2.58 2.8-4.87 1.5-6.16l-7.76-7.77c-1.29-1.29-3.58-1.07-6.16 1.51z"/></svg>