<svg xmlns="http://www.w3.org/2000/svg" viewBox="0 0 100 100"><path d="M53.18 4 40.96 60.28c-.3 1.7-.95 3.52-1.65 4.7-.94.87-1.12 1.37-1.82 1.71-.7.35-1.22.55-2.6.63v6.84c1.74.1 3.03.47 3.87 1.14.85.64 1.49 1.72 1.9 3.24.31 1.05.46 3.32.46 6.81 0 3 .16 5.2.49 6.58a7.25 7.25 0 0 0 5.35 5.56c1.37.41 3.33.62 5.9.62h1.5v-6.83c-2.04 0-3.38-.14-4-.4a2.77 2.77 0 0 1-1.38-1.11c-.3-.5-.45-1.37-.45-2.62 0-.88-.07-2.9-.2-6.04a21.44 21.44 0 0 0-.74-4.96 8.8 8.8 0 0 0-1.65-3.13 9.61 9.61 0 0 0-2.74-2.28 11.7 11.7 0 0 0 2.82-2.37c.63-.75.61-1.71 1.01-2.87.4-2.23.53-3.24.91-5.29L60.28 4Zm-15.35 7.8L4 27.95v8.98l33.83 16.22v-10.5l-23.6-10.32 23.6-9.95Zm25.58.07V22.3l23.63 10.14-23.63 10.25v10.5l33.86-16.26v-8.9zm26.1 38.68-7.13 3.42.02.53c.1 4.52.24 7.45.45 8.78.32 1.93.93 3.53 1.82 4.78.65.87 1.68 1.77 3.08 2.68a10 10 0 0 0-2.68 2.2 9.56 9.56 0 0 0-1.65 3.01 16.99 16.99 0 0 0-.77 4.73c-.15 3.27-.24 5.48-.25 6.64 0 1.16-.16 1.97-.46 2.45-.28.49-.74.86-1.37 1.1-.62.27-1.95.4-3.99.4v6.84h1.51c2.5 0 4.32-.17 5.47-.51a9.15 9.15 0 0 0 3.93-2.1c.9-.88 1.5-2.05 1.83-3.51.34-1.46.51-4.04.51-7.72 0-2.24.08-3.82.23-4.73.2-1.21.56-2.22 1.05-3.02a4.53 4.53 0 0 1 1.83-1.74c.7-.34 1.74-.55 3.13-.62v-6.84c-1.75-.1-3.05-.46-3.9-1.11-.86-.66-1.5-1.76-1.91-3.28-.29-1.06-.43-3.33-.43-6.8 0-2.36-.1-4.22-.32-5.58zM61.37 55.6v8h8v-8zm0 22.24v8h3.88a6.63 6.63 0 0 1-1.08 3.8c-.69.94-1.84 1.68-3.45 2.22l1.57 3.3c1.7-.6 3.11-1.44 4.21-2.5a8.13 8.13 0 0 0 2.28-3.62c.4-1.33.6-3.16.6-5.47v-5.73z" font-family="Arial" font-size="58.34" font-weight="700" style="-inkscape-font-specification:&quot;Arial Bold&quot;"/></svg>