<svg xmlns="http://www.w3.org/2000/svg" viewBox="0 0 100 100"><path d="M63.55 20.02a30 30 0 0 0-30 30c.1 21.6 17.5 22.26 17.5 29.37v6.75c0 3.25 2.23 5.88 5 5.88h15c2.77 0 5-2.63 5-5.88v-6.75c0-6.37 17.31-6.48 17.5-29.37a30 30 0 0 0-30-30Zm-4 7.63a2.81 2.81 0 0 1 2.57 2.08 2.81 2.81 0 0 1-1.99 3.45A16.88 16.88 0 0 0 48.2 53.84a2.81 2.81 0 0 1-1.99 3.45 2.81 2.81 0 0 1-3.44-1.99 22.5 22.5 0 0 1 15.9-27.56 2.81 2.81 0 0 1 .88-.09zM19.51 46.66a16.1 16 15 0 0-12.76 5.49l13.99 3.74 3.05 8.07-6.68 5.46-13.98-3.75A16.1 16 15 0 0 14.78 78.1a16.1 16 15 0 0 16.32-4.95l12.43 3.33c-6.06-4.62-15.49-10.47-15.96-27.29a16.1 16 15 0 0-4.5-2 16.1 16 15 0 0-3.56-.54Zm68.54 27.27c-4.9 3.9-9.5 5.83-9.5 9.43v2.52l9.53 2.55a7 7 0 1 0 3.63-13.52zm2.04 3.76a4 4 0 0 1 .88.13 4 4 0 0 1 2.83 4.9 4 4 0 0 1-4.9 2.83 4 4 0 0 1-2.82-4.9 4 4 0 0 1 4-2.96zM53.55 95.02a4 4 0 0 0 4 4h12a4 4 0 0 0 4-4z"/><text xml:space="preserve" x="27.78" y="75.91" fill="#fff" stroke-width=".63" font-family="Arial" font-size="83.79" font-weight="400" style="-inkscape-font-specification:Arial"/><path d="M29.27 5.4a3.6 3.6 0 0 0-2.55 6.15l7 7a3.6 3.6 0 1 0 5.1-5.09l-7-7a3.59 3.59 0 0 0-2.55-1.06ZM7.13 25.18a3.6 3.6 0 0 0-.96 7.08l19.12 5.13a3.6 3.6 0 1 0 1.87-6.96L8.03 25.31c-.3-.08-.6-.12-.9-.13Z"/></svg>