<svg xmlns="http://www.w3.org/2000/svg" viewBox="0 0 50 50"><path d="m21.56-.07 1.18 8.16h4.47l1.27-8.16h-6.92zM15.4 1.35l-6 3.46 5.18 6.45 3.87-2.24-3.05-7.67zm19.16.17-3.05 7.66 3.86 2.24 5.18-6.45-6-3.45zm10.57 7.9-6.45 5.19 2.24 3.86 7.66-3.05-3.45-6zM4.9 9.67l-3.46 6L9.1 18.7l2.24-3.86L4.9 9.66zm20.05.05A15.51 15.51 0 0 0 9.79 25.56a15.51 15.51 0 0 0 15.84 15.17A15.51 15.51 0 0 0 40.8 24.91v-.06A15.51 15.51 0 0 0 24.95 9.7zM49.93 21l-8.17 1.18v4.47l8.17 1.27V21zM.3 21.57v6.92l8.17-1.27-.01-4.46-8.16-1.2zm40.73 9.83-2.24 3.86 6.44 5.18 3.46-6-7.66-3.04zm-31.64.47-7.67 3.06 3.46 5.99 6.45-5.18-2.24-3.87zm26.81 6.36-3.86 2.24 3.05 7.66 6-3.46-5.19-6.44zm-21.32.57L9.7 45.24l6 3.46 3.04-7.66-3.86-2.24zm13.48 3.06-4.47.01-1.19 8.16h6.92l-1.26-8.17z"/></svg>