<svg xmlns="http://www.w3.org/2000/svg" xmlns:xlink="http://www.w3.org/1999/xlink" xml:space="preserve" style="border-radius:.5em" viewBox="0 0 160 90"><g style="border-radius:.5em"><path fill="#6c535d" d="M0 0h160v90H0z"/><rect width="39.55" height="2" x="6.79" y="81.73" fill="#48373e" rx="1"/><rect width="65" height="2" x="78.74" y="81.71" fill="#48373e" rx="1"/><rect width="160.54" height="6.75" y="57.36" fill="#916f7c" rx="1"/><rect width="71.24" height="40.13" x="52.64" y="17.31" fill="#241c1f" stroke="#916f7c" stroke-width="3.83" rx="10"/><ellipse cx="67.23" cy="33.41" fill="#fea" fill-opacity=".15" rx="10.22" ry="9.64" style="border-radius:.5em"/><ellipse cx="67.23" cy="33.41" fill="#fea" fill-opacity=".15" rx="5.72" ry="5.39" style="border-radius:.5em"/><rect id="a" width="5" height="20" x="94.24" y="-50.91" fill="#916f7c" fill-opacity=".19" stroke="none" stroke-dasharray="none" stroke-opacity="1" stroke-width="4" rx="2.5" transform="rotate(41.5)"/><use xlink:href="#a" transform="translate(-41.1 5.54)"/><use xlink:href="#a" transform="translate(7 10.84)"/><text xml:space="preserve" x="20.57" y="13.99" fill="#f2f2f2" stroke-width=".81" font-family="Arial" font-size="14.51" font-weight="400" letter-spacing="-.48" style="-inkscape-font-specification:Arial" transform="scale(.806 1.24)" word-spacing="1.61"><tspan x="20.57" y="13.99">THE BOXER GAME</tspan></text><path id="b" fill="#fea" fill-opacity=".15" stroke="none" stroke-dasharray="none" stroke-opacity="1" stroke-width="2.76" d="M43.49 78.94h1.83v1.83h-1.83z" transform="rotate(-45)"/><use xlink:href="#b" transform="translate(1.4 11.02)"/><use xlink:href="#b" transform="translate(25.86 2.33)"/><use xlink:href="#b" transform="translate(20.34 13.74)"/><use xlink:href="#b" transform="translate(15.72 -3.23)"/><use xlink:href="#b" transform="translate(9.37 2.33)"/><use xlink:href="#b" transform="translate(6.78 27.85)"/></g><g><path fill="gray" d="M13.3 55.43a7.28 7.28 0 0 1 3.58-9.65c2.5.27 1.87 21.5-3.58 9.65z" style="border-radius:.5em"/><rect width="17.34" height="15.61" x="17.67" y="53.94" fill="#f60" rx="4.34" style="border-radius:.5em"/><rect width="17.42" height="8.16" x="34.23" y="47.76" fill="#ff7f2a" rx="3.48" style="border-radius:.5em" transform="matrix(.984 .179 -.13 .992 0 0)"/><path fill="#f60" d="m32.12 61 9.37 1.76-.22 1.61-9.37-1.75z" style="border-radius:.5em"/><rect width="8.46" height="13.66" x="58.09" y="-.28" fill="#ff7f2a" rx="4.23" style="border-radius:.5em" transform="matrix(.343 .94 -.865 .502 0 0)"/><path fill="#f60" d="m11.78 67.26 8.17-5 .58 1.5-8.17 5z" style="border-radius:.5em"/><path fill="#ff7f2a" d="M22 53.94a4.33 4.33 0 0 0-4.33 4.34v6.94c0 2.4 1.93 4.33 4.33 4.33h6.94c2.4 0 4.34-1.93 4.34-4.33v-6.94c0-2.4-1.94-4.34-4.34-4.34z" style="border-radius:.5em"/><rect width="14.9" height="12.77" x="44.22" y="55.18" fill="#a00" rx="6.38" style="border-radius:.5em"/><rect width="12.77" height="12.77" x="44.22" y="55.18" fill="#d40000" rx="6.38" style="border-radius:.5em"/><path fill="#ccc" d="M45.5 60.22a4.18 4.18 0 0 1-4.2 4.15 4.18 4.18 0 0 1-4.15-4.2A4.18 4.18 0 0 1 41.34 56a4.18 4.18 0 0 1 4.17 4.18h-4.18z" style="border-radius:.5em"/><circle cx="40.33" cy="50.92" r="4.29" fill="#ccc" style="border-radius:.5em" transform="rotate(27.2)"/><rect width="14.9" height="9.58" x="39.25" y="55.18" fill="#d40000" rx="4.79" style="border-radius:.5em"/><rect width="9.6" height="14.93" x="43.63" y="39.77" fill="#a00" rx="4.8" style="border-radius:.5em" transform="rotate(38)"/><rect width="10.66" height="5.33" x="64.5" y="-23.14" fill="#a00" rx="2.67" style="border-radius:.5em" transform="rotate(99.1)"/><path fill="#d40000" d="M13.58 61.18a4.79 4.79 0 0 0-6.73.81l-3.3 4.2a4.78 4.78 0 0 0-.73 4.6 4.82 4.82 0 0 0 7.76.29l3.3-4.2a4.78 4.78 0 0 0 .73-4.6 4.87 4.87 0 0 0-1.03-1.1z" style="border-radius:.5em"/><rect width="10.66" height="14.93" x="42.57" y="44.21" fill="#a00" rx="5.33" style="border-radius:.5em" transform="rotate(38)"/><path fill="#d40000" d="M10.42 64.34c-2.32-1.82-5.51-1.6-7.15.5l-3.29 4.19a4.7 4.7 0 0 0-.54 4.75c.32.44.7.85 1.16 1.2 2.32 1.83 5.51 1.61 7.15-.48l3.3-4.2a4.7 4.7 0 0 0 .53-4.76 5.9 5.9 0 0 0-1.16-1.2z" style="border-radius:.5em"/><rect width="10.64" height="5.32" x="63.37" y="33.43" fill="#a00" rx="2.66" style="border-radius:.5em" transform="rotate(25)"/><path fill="red" d="M44.14 58a2.65 2.65 0 0 0-.68 5.03l4.83 2.25c.22.1.44.17.67.21a2.65 2.65 0 0 0 .67-5.04l-4.82-2.24c-.22-.1-.45-.17-.67-.21Z" style="border-radius:.5em"/><rect width="4.26" height="1.6" x="66.04" y="35.92" fill="#f55" rx=".8" style="border-radius:.5em" transform="rotate(25)"/><rect width="6.94" height="2.6" x="51.86" y="23.18" fill="#ccc" rx="1.3" style="border-radius:.5em" transform="rotate(48)"/><rect width="6.94" height="2.6" x="29.73" y="-57.94" fill="#ccc" rx="1.3" style="border-radius:.5em" transform="rotate(119)"/><rect width="4.61" height="6.57" x="24.03" y="55.24" fill="gray" rx="1.3" style="border-radius:.5em"/><rect width="4.26" height="1.6" x="48.47" y="56.56" fill="#f55" rx=".8" style="border-radius:.5em"/><rect width="1.6" height="4.26" x="44.35" y="47.16" fill="#f55" rx=".8" style="border-radius:.5em" transform="rotate(38)"/><rect width="23.6" height="18.88" x="14.54" y="39.84" fill="#ececec" rx="9.44" style="border-radius:.5em"/><path id="c" fill="#f60" stroke-dasharray="1.76147,1.76147" stroke-width=".59" d="m22 69.55 9.52 6.02v2.47c0 1.44 1.47 2.6 3.3 2.6 1.84 0 3.32-1.16 3.32-2.6v-3.41c0-.95-.38-1.6-.91-2.02l-4.9-4.6z" style="border-radius:.5em"/><path id="d" fill="#ff7f2a" fill-opacity="1" stroke-dasharray="1.91878,1.91878" stroke-width=".64" d="M35.75 78.45c-1.1 0-1.97 1.03-1.97 2.31h8.64c0-1.28-.88-2.3-1.97-2.3z" style="border-radius:.5em"/><rect id="e" width="7.8" height="6.77" x="31.1" y="75.44" fill="#ccc" fill-opacity="1" stroke-dasharray="1.62572,1.62572" stroke-width=".54" rx="1.88" style="border-radius:.5em"/><rect id="f" width="13.01" height="2.03" x="30.48" y="80.76" fill="#999" fill-opacity="1" stroke-dasharray="2.11735,2.11735" stroke-width=".71" rx=".43" style="border-radius:.5em"/><circle id="g" cx="33.25" cy="78.83" r="1.12" fill="#4d4d4d" fill-opacity="1" stroke-dasharray="1.56099,1.56099" stroke-width=".52" style="border-radius:.5em"/><use xlink:href="#c" style="border-radius:.5em" transform="matrix(-1 0 0 1 52.86 0)"/><use xlink:href="#d" style="border-radius:.5em" transform="matrix(-1 0 0 1 52.86 0)"/><use xlink:href="#e" style="border-radius:.5em" transform="matrix(-1 0 0 1 52.86 0)"/><use xlink:href="#f" style="border-radius:.5em" transform="matrix(-1 0 0 1 52.86 0)"/><use xlink:href="#g" style="border-radius:.5em" transform="matrix(-1 0 0 1 52.86 0)"/><path fill="#fff" d="M24 41.82a7.28 7.28 0 0 0-7.29 7.28 1.82 1.82 0 1 0 3.64 0v-.19a3.68 3.68 0 0 1 3.64-3.51h3.7a1.78 1.78 0 0 0 0-3.57z" style="border-radius:.5em"/><rect width="14.16" height="9.44" x="23.09" y="46.37" fill="#a0892c" rx="4.72" style="border-radius:.5em"/><path fill="#c8ab37" d="M28.43 47.45a4.7 4.7 0 0 0-4.37 6.5 4.7 4.7 0 0 0 3.75 1.86h4.72a4.7 4.7 0 0 0 4.37-6.5 4.7 4.7 0 0 0-3.75-1.86Z" style="border-radius:.5em"/><path fill="#d3bc5f" d="M28.05 48.3a3.23 3.23 0 0 0-3.24 3.24.8.8 0 1 0 1.62 0v-.08c.04-.88.75-1.56 1.62-1.56h1.64a.8.8 0 0 0 0-1.6z" style="border-radius:.5em"/><path fill="red" d="M32.26 62.58a.83.83 0 0 1-.84.83.83.83 0 0 1-.83-.84.83.83 0 0 1 .83-.83.83.83 0 0 1 .84.84h-.84z" style="border-radius:.5em"/><path fill="navy" d="M32.26 65.3a.83.83 0 0 1-.84.83.83.83 0 0 1-.83-.84.83.83 0 0 1 .83-.83.83.83 0 0 1 .84.84h-.84z" style="border-radius:.5em"/><rect width="17.34" height="2.6" x="17.67" y="67.19" fill="#999" rx="1.3" style="border-radius:.5em"/><path fill="#fc0" d="M21.67 68.5a.83.83 0 0 1-.84.82.83.83 0 0 1-.83-.84.83.83 0 0 1 .84-.83.83.83 0 0 1 .83.84h-.83zm3.35 0a.83.83 0 0 1-.84.82.83.83 0 0 1-.82-.84.83.83 0 0 1 .83-.83.83.83 0 0 1 .83.84h-.83zm8.25 0a.83.83 0 0 1-.84.82.83.83 0 0 1-.83-.84.83.83 0 0 1 .83-.83.83.83 0 0 1 .84.84h-.84z" style="border-radius:.5em"/><rect width="4.72" height="2.36" x="28.92" y="54.61" fill="#ccc" rx="1.18" style="border-radius:.5em"/><rect width="10.81" height="1.89" x="25.54" y="44.49" fill="#ccc" rx=".94" style="border-radius:.5em"/><rect id="h" width="5.2" height="2.6" x="-7.7" y="78.04" fill="#999" fill-opacity="1" stroke-width=".52" rx="1.3" style="border-radius:.5em" transform="rotate(-29.2)"/><use xlink:href="#h" style="border-radius:.5em" transform="matrix(-1 0 0 1 52.67 0)"/></g><g style="border-radius:.5em"><use xlink:href="#i" style="border-radius:.5em" transform="matrix(.604 -.154 -.154 -.604 34.56 122.75)"/><rect width="26.02" height="6.07" x="99.09" y="25.55" fill="#241c1f" rx="3.04" style="border-radius:.5em" transform="rotate(19.1)"/><path id="j" fill="#22002b" stroke-dasharray="1.62375,1.62375" stroke-width=".54" d="M88.68 70.6a11.03 11.03 0 0 1 15.2-3.56 2.76 2.76 0 1 1-2.91 4.7l-.24-.17a5.58 5.58 0 0 0-7.45 1.9l-5.02 8.09a2.7 2.7 0 0 1-4.6-2.86z" style="border-radius:.5em"/><path id="i" fill="#2b0022" stroke-dasharray="1.43579,1.43579" stroke-width=".48" d="M101.81 70.64a9.76 9.76 0 0 0-9.76 9.76 2.44 2.44 0 1 0 4.88 0l-.01-.26a4.94 4.94 0 0 1 4.89-4.72h4.95a2.4 2.4 0 0 0 0-4.78z" style="border-radius:.5em"/><path fill="#504" d="M97.2 72.98a2.2 2.2 0 0 0-2.2 2.2.55.55 0 1 0 1.1 0v-.05c.02-.6.5-1.07 1.1-1.07h.32a.54.54 0 0 0 0-1.08z" style="border-radius:.5em"/><path fill="#405" d="M96.53 66.52a2.2 2.2 0 0 0-2.83 1.32.55.55 0 1 0 1.04.38l.02-.05c.23-.55.85-.83 1.4-.63l.3.11a.54.54 0 0 0 .38-1.01z" style="border-radius:.5em"/><rect width="5.2" height="13.01" x="117.65" y="39.27" fill="#4a0" rx="2.6" style="border-radius:.5em" transform="rotate(5.8)"/><circle cx="111.24" cy="67.61" r="9.12" fill="#241c1f" style="border-radius:.5em"/><rect width="4.34" height="2.17" x="86.2" y="87.05" fill="#48373e" rx="1.08" style="border-radius:.5em" transform="rotate(-16)"/><rect width="5.2" height="13.01" x="114.91" y="35.67" fill="#338000" rx="2.6" style="border-radius:.5em" transform="rotate(5.8)"/><rect width="2.17" height="3.95" x="115.71" y="38.15" fill="#4a0" rx="1.08" style="border-radius:.5em" transform="rotate(5.8)"/><use xlink:href="#j" style="border-radius:.5em" transform="matrix(-1 0 0 1 223.18 0)"/><use xlink:href="#i" style="border-radius:.5em" transform="matrix(-1 0 0 1 223.18 0)"/><use xlink:href="#i" style="border-radius:.5em" transform="matrix(.572 .248 .248 -.572 51 70.46)"/><rect width="2.6" height="1.3" x="119.06" y="71.14" fill="#504" rx=".65" style="border-radius:.5em"/><rect width="2.6" height="1.3" x="122.97" y="67.66" fill="#405" rx=".65" style="border-radius:.5em"/><rect width="10.41" height="4.34" x="54.15" y="-130.25" fill="#241c1f" rx="2.17" style="border-radius:.5em" transform="rotate(85)"/><rect width="10.41" height="4.34" x="97.78" y="5.16" fill="#241c1f" rx="2.17" style="border-radius:.5em" transform="rotate(28.9)"/><path fill="#241c1f" d="M125.57 67.44a12.3 12.3 0 0 0 8.33-15.29 3.08 3.08 0 1 0-5.9 1.74l.1.3a6.23 6.23 0 0 1-4.23 7.46l-6 1.76a3.02 3.02 0 0 0 1.71 5.8z" style="border-radius:.5em"/><rect width="4.34" height="1.73" x="98.86" y="93.87" fill="#48373e" rx=".87" style="border-radius:.5em" transform="rotate(-16)"/><rect width="4.34" height="1.73" x="108.75" y="25.91" fill="#48373e" rx=".87" style="border-radius:.5em" transform="rotate(19.2)"/><rect width="2.6" height="1.37" x="99.4" y="5.14" fill="#48373e" rx=".69" style="border-radius:.5em" transform="rotate(29.2)"/><rect width="2.6" height="1.73" x="-56.38" y="127.31" fill="#48373e" rx=".87" style="border-radius:.5em" transform="rotate(-94.2)"/><circle cx="110.08" cy="67.61" r="5.37" fill="#e3d7f4" style="border-radius:.5em"/><circle cx="108.44" cy="67.61" r="2.53" fill="#ff2a2a" style="border-radius:.5em"/><circle cx="107.59" cy="67" r=".61" fill="#ff8080" style="border-radius:.5em"/><rect width="13.01" height="5.2" x="107.34" y="54.61" fill="#405" rx="2.6" style="border-radius:.5em" transform="rotate(3.6)"/></g><g><rect id="k" width="5.17" height="17.24" x="137.64" y="44.28" fill="#ff2a7f" fill-opacity="1" stroke-width=".52" rx="3.02" style="border-radius:.5em"/><use xlink:href="#k" style="border-radius:.5em" transform="translate(2.59 10.75)"/><use xlink:href="#k" style="border-radius:.5em" transform="translate(2.59 -8.62)"/><use xlink:href="#k" style="border-radius:.5em" transform="translate(6.96 15.9)"/><use xlink:href="#k" style="border-radius:.5em" transform="translate(6.53 -14.96)"/><use xlink:href="#k" style="border-radius:.5em" transform="translate(10.35 -16.03)"/><rect id="l" width="5.17" height="17.24" x="142.81" y="44.28" fill="#d40000" fill-opacity="1" stroke-width=".52" rx="3.02" style="border-radius:.5em"/><use xlink:href="#l" style="border-radius:.5em" transform="translate(3.88 -8.62)"/><use xlink:href="#l" style="border-radius:.5em" transform="translate(2.59 8.62)"/><use xlink:href="#l" style="border-radius:.5em" transform="matrix(1.453 0 0 1 -57.8 2.1)"/><rect width="5.17" height="17.24" x="145.46" y="45.25" fill="#a00" rx="3.02" style="border-radius:.5em"/><rect width="3.45" height="8.62" x="146.32" y="49.56" fill="maroon" rx="1.72" style="border-radius:.5em"/><use xlink:href="#k" style="border-radius:.5em" transform="translate(11.27 17.3)"/><use xlink:href="#k" style="border-radius:.5em" transform="translate(14.5 9.6)"/><use xlink:href="#k" style="border-radius:.5em" transform="translate(15.76 -5.42)"/><use xlink:href="#k" style="border-radius:.5em" transform="translate(17.73 3.2)"/><use xlink:href="#k" style="border-radius:.5em" transform="translate(13.05 -10.84)"/><circle cx="148.04" cy="53.87" r="1.12" fill="#2b0000" style="border-radius:.5em"/><circle id="m" cx="140.22" cy="73.6" r="1.62" fill="#f59" fill-opacity="1" stroke-width="1.05" style="border-radius:.5em"/><use xlink:href="#m" style="border-radius:.5em" transform="translate(15.84 -2.82)"/><use xlink:href="#m" style="border-radius:.5em" transform="translate(18.18 -18.17)"/><use xlink:href="#m" style="border-radius:.5em" transform="translate(-3.16 -11.11)"/><use xlink:href="#m" style="border-radius:.5em" transform="translate(-2.54 -24.96)"/><use xlink:href="#m" style="border-radius:.5em" transform="translate(19.97 -29.32)"/><use xlink:href="#m" style="border-radius:.5em" transform="translate(7.76 -48.31)"/><use xlink:href="#m" style="border-radius:.5em" transform="translate(-.97 -36.36)"/><use xlink:href="#m" style="border-radius:.5em" transform="translate(7.76 6.89)"/><rect id="n" width="2" height="10" x="139.76" y="50.04" fill="#f59" fill-opacity="1" stroke-width=".52" rx="1" style="border-radius:.5em"/><use xlink:href="#n" style="border-radius:.5em" transform="translate(2.1 -11.56)"/><use xlink:href="#n" style="border-radius:.5em" transform="translate(9.88 -17.1)"/><use xlink:href="#n" style="border-radius:.5em" transform="translate(14 7.09)"/><use xlink:href="#n" style="border-radius:.5em" transform="translate(9.96 14.77)"/><use xlink:href="#n" style="border-radius:.5em" transform="translate(14 -7.1)"/></g><g><circle id="o" cx="72.57" cy="54.78" r="2.76" fill="#59f" fill-opacity="1" stroke="none" stroke-dasharray="none" stroke-opacity="1" stroke-width=".52" style="border-radius:.5em"/><path id="p" fill="#80b3ff" fill-opacity="1" stroke="none" stroke-dasharray="none" stroke-opacity="1" stroke-width=".52" d="M72.57 52.02a2.76 2.76 0 0 0-2.76 2.76 2.76 2.76 0 0 0 1.92 2.62 2.76 2.76 0 0 0 2.75-2.75 2.76 2.76 0 0 0-1.9-2.63z" style="border-radius:.5em"/><circle id="q" cx="71.31" cy="53.87" r=".84" fill="#acf" fill-opacity="1" stroke="none" stroke-dasharray="none" stroke-opacity="1" stroke-width=".52" style="border-radius:.5em"/><use xlink:href="#o" style="border-radius:.5em" transform="translate(-11.43 6)"/><use xlink:href="#p" style="border-radius:.5em" transform="translate(-11.43 6)"/><use xlink:href="#q" style="border-radius:.5em" transform="translate(-11.43 6)"/><use xlink:href="#o" style="border-radius:.5em" transform="translate(55.74 -7.81)"/><use xlink:href="#p" style="border-radius:.5em" transform="translate(55.74 -7.81)"/><use xlink:href="#q" style="border-radius:.5em" transform="translate(55.74 -7.81)"/><use xlink:href="#q" style="border-radius:.5em" transform="translate(-12.2 .73)"/><use xlink:href="#q" style="border-radius:.5em" transform="translate(-13.72 14.61)"/></g></svg>