<svg xmlns="http://www.w3.org/2000/svg" xmlns:xlink="http://www.w3.org/1999/xlink" xml:space="preserve" style="border-radius:.5em" viewBox="0 0 160 90"><defs><linearGradient id="d"><stop offset="0" stop-color="#fff" stop-opacity=".25"/><stop offset="1" stop-color="#fff" stop-opacity=".08"/></linearGradient><linearGradient id="c"><stop offset="0" stop-color="#2f4621"/><stop offset="1" stop-color="#1b2712"/></linearGradient><linearGradient id="b"><stop offset="0" stop-color="#1e2f15"/><stop offset="1" stop-color="#4d6f34"/></linearGradient><linearGradient id="a"><stop offset="0" stop-color="#fda327"/><stop offset="1" stop-color="#83bdcc"/></linearGradient><linearGradient xlink:href="#a" id="e" x1="128.92" x2="128.92" y1="62.98" y2="15.62" gradientTransform="matrix(1 0 0 .921 0 1.23)" gradientUnits="userSpaceOnUse"/><linearGradient xlink:href="#b" id="f" x1="128.92" x2="128.75" y1="61.32" y2="23.09" gradientUnits="userSpaceOnUse"/><linearGradient xlink:href="#c" id="g" x1="129.05" x2="128.92" y1="34.58" y2="61.32" gradientUnits="userSpaceOnUse"/><linearGradient xlink:href="#d" id="h" x1="145.98" x2="116.11" y1="61.32" y2="15.62" gradientUnits="userSpaceOnUse"/></defs><path fill="#483737" d="M0 62.98h160V90H0z"/><path fill="#ccc" d="M0 0h160v62.98H0z"/><path fill="#917c6f" d="M0 58.05h160v4.92H0z"/><rect width="80.09" height="15.55" x="-52.37" y="121.1" fill="#6c5d53" rx="3" transform="matrix(1 0 .737 .675 0 0)"/><path fill="#333" d="M102.27 11.98h53.55v51.09h-53.55z"/><path fill="url(#e)" d="M105.92 15.62h46v43.63h-46z" transform="translate(0 .1)"/><path fill="url(#f)" d="m105.92 23.09 4.9 4.44 5.75 2 3.55 8.94 8.93-6.98 2.89-3.96 3.22-2.24 4.05 3.23 6.36.68 6.35-3.4v35.52h-46z" transform="translate(0 .1)"/><path fill="url(#g)" d="m105.92 37.43 4.4 4.77 4.39-4.77 6.54-1.13 7.8-1.72 3.64 4.23 6.8 4.77 8.33-2.04 4.1-4.11v23.9h-46z" transform="translate(0 .1)"/><path fill="url(#h)" d="M105.92 15.62h46v45.7h-46z" transform="translate(0 .1)"/><path fill="#333" d="M127.23 11.98h3.65v51.09h-3.65z"/><path fill="#165016" d="M14 25.3c-.32-.19.77-.19 1.08 0 5.77 3.33 7.37 4.11 9.11 7.69 3.9 8 .95 20 .95 26.66 0 .36-1.08.36-1.08 0C24.06 53 27 40.98 23.1 33c-1.74-3.58-3.34-4.36-9.11-7.7z"/><path fill="#165016" d="M5.33 34.45c-.36.01.55-.57.92-.58 6.66-.26 8.43-.45 11.8 1.64 7.57 4.69 11.48 16.4 15.04 22.04.2.31-.72.89-.92.58-3.55-5.63-7.47-17.35-15.03-22.04-3.38-2.1-5.15-1.9-11.81-1.64Z"/><path fill="#165016" d="M10.38 56.56c-.3.2.19-.77.5-.97 5.57-3.64 7-4.72 10.97-4.65 8.9.14 18.27 8.19 24.22 11.2.32.17-.17 1.13-.5.97-5.94-3.01-15.32-11.06-24.2-11.2-3.98-.07-5.4 1-10.99 4.65z"/><path fill="#165016" d="M11.15 42.99c-.36-.05.64-.47 1-.42 6.61.84 8.4.95 11.38 3.58 6.67 5.87 8.6 18.08 11.17 24.23.14.33-.86.75-1 .42-2.58-6.15-4.5-18.36-11.17-24.24-2.99-2.62-4.77-2.73-11.38-3.57Z"/><path fill="#165016" d="M37.81 25.2c.3-.12-.7-.32-1-.2-5.41 2.12-6.91 2.58-8.62 5.67-3.82 6.93-1.46 18.91-1.66 25.27 0 .35.99.54 1 .2.2-6.36-2.16-18.35 1.66-25.27 1.7-3.1 3.2-3.55 8.62-5.68z"/><path fill="#165016" d="M39.38 30.18c.3-.07-.6-.4-.9-.33-5.43 1.34-6.91 1.58-9.03 4.4-4.75 6.3-4.56 18.47-5.81 24.73-.07.33.84.67.9.33 1.26-6.25 1.07-18.42 5.8-24.73 2.13-2.81 3.6-3.06 9.04-4.4z"/><path fill="#165016" d="M37.42 40.49c.3-.07-.6-.41-.9-.34-5.43 1.35-6.91 1.59-9.03 4.4-4.75 6.3-4.55 18.48-5.8 24.73-.08.34.83.68.9.34 1.25-6.26 1.06-18.43 5.8-24.73 2.12-2.82 3.6-3.06 9.03-4.4z"/><path fill="#165016" d="M21.91 25.76c.13-.28-.7.2-.83.48-2.43 5.04-3.19 6.34-2.37 9.77 1.84 7.67 11.34 15.28 15.36 20.23.21.27 1.05-.21.83-.48-4.02-4.96-13.52-12.56-15.35-20.24-.82-3.43-.07-4.72 2.36-9.76z"/><path id="i" fill="#5aa02c" fill-opacity="1" stroke-width="17.17" d="M23.92 30.87c-.88 0-1.74.88-2.11 1.92 0 0 .76 0 1.18.02.4.02 1.22-.09 1.2.18-.01.26-.83.34-1.25.38-.42.04-1.2-.09-1.2-.09-.04.33-.06.7-.06 1.1 0 .3.08.84.1 1.11 0 0 1.32-.16 1.95-.22.63-.05 1.62.04 1.66.26.05.23-.98.2-1.57.29-.6.08-2.04.1-2.04.1a8.41 8.41 0 0 0 1.92 3.63s.64-.66 1.08-.88c.45-.22 1.12-.7 1.33-.49.21.22-.52.7-.85 1.02-.32.32-1.18.8-1.18.8.73.64 1.68 1.29 2.53 1.78V31.77a5.7 5.7 0 0 0-2.69-.9z"/><path id="j" fill="#338000" fill-opacity="1" stroke-width="17.17" d="M29.19 30.87c-.77.03-1.66.37-2.58.9v10c.94-.54 1.85-1.13 2.63-1.86 0 0-.97-.33-1.2-.58-.21-.25-.34-.45-.21-.64.13-.18.36-.09.7 0 .33.07.65.32 1.19.63.5-.6.97-1.56 1.25-2.37 0 0-.78-.26-1.18-.42-.4-.16-.99-.42-.91-.66.07-.23.65-.1 1.06.02.42.12.56.3 1.18.53a9 9 0 0 0 .31-3.2s-1.07.09-1.43 0c-.37-.09-.7-.1-.71-.26 0-.18.1-.2.45-.32.36-.12 1.08.12 1.6.14-.36-1.24-1.16-1.94-2.15-1.9z"/><use xlink:href="#i" transform="matrix(.801 -.555 .479 .93 -1.56 9.19)"/><use xlink:href="#j" transform="matrix(.801 -.555 .479 .93 -1.56 9.19)"/><use xlink:href="#i" transform="matrix(.85 .43 -.627 .752 3.12 -1.1)"/><use xlink:href="#j" transform="matrix(.85 .43 -.627 .752 3.12 -1.1)"/><use xlink:href="#i" transform="matrix(.827 .11 -.298 .822 -.02 13.87)"/><use xlink:href="#j" transform="matrix(.827 .11 -.298 .822 -.02 13.87)"/><use xlink:href="#i" transform="matrix(.456 .923 -.948 .315 33.08 -9.26)"/><use xlink:href="#j" transform="matrix(.456 .923 -.948 .315 33.08 -9.26)"/><use xlink:href="#i" transform="matrix(1.004 .227 -.352 .935 2.9 2.2)"/><use xlink:href="#j" transform="matrix(1.004 .227 -.352 .935 2.9 2.2)"/><use xlink:href="#i" transform="matrix(.534 -.57 .433 .635 5.92 35.15)"/><use xlink:href="#j" transform="matrix(.534 -.57 .433 .635 5.92 35.15)"/><use xlink:href="#i" transform="matrix(.749 .224 -.375 .67 2.38 29.3)"/><use xlink:href="#j" transform="matrix(.749 .224 -.375 .67 2.38 29.3)"/><use xlink:href="#i" transform="matrix(.89 -.734 .72 .817 -8.44 24.14)"/><use xlink:href="#j" transform="matrix(.89 -.734 .72 .817 -8.44 24.14)"/><use xlink:href="#i" transform="matrix(.243 -.794 .878 .172 -12.28 41.2)"/><use xlink:href="#j" transform="matrix(.243 -.794 .878 .172 -12.28 41.2)"/><rect width="7.01" height="2.5" x="153.47" y="4.51" fill="#447821" rx="3.25"/><path fill="#d38d5f" d="M151 5.48h12.04l-2.25 8.55h-7.54z"/><path fill="#c87137" d="M157.18 5.48v8.55h3.77l2.25-8.55z"/><path id="k" fill="#4a0" stroke-width="15.67" d="M139.38 31.93c3.04-3.79 5.9-3.88-1.44-4.84 5.58 2.59 7.66-.16-.3-3.45 6.33 5.72 10.12 3.26 1.1-1.95 6.63 8.64 10.44 2.59.7-2.17 7.78 7.66 11.42 2.75 1.54-1.94 7.18 7.88 11.6 2.75 1.55-1.93 7.75 7.3 9.9 1.8 1.55-1.94 8.06 7.52 9.15 1.16 2.22-1.4 6.64 6.29 7.44 2.35 2.37-1.28 3.55 5.71 4.92 2.19 4.95 2.8.03.62-3.5.98 3.96 5.72-5.97-7.1-9.39-3.48-.55 2.47-5.88-9.25-11.21-3.52-1.31 2.04-6.96-9.49-11.98-2.71-.87 2.21-8.81-8.39-11.12-2.78-1.57 2.09-8.4-8.73-11.08-4.94-2.53 2.3-5.47-10.25-10.05-5.95-2.65 1.67-4.97-10.16-6.56-2.63-5 .8.66-7.43-2.2-5.02-3.72-1.2z"/><path fill="#decd87" d="m156.51-7.94.94.25-4.11 14.87-.94-.26z"/><use xlink:href="#k" transform="matrix(.634 -.605 .56 .566 54.45 98.81)"/><use xlink:href="#k" transform="matrix(1.256 .252 -.334 .74 -34.35 -43.66)"/><use xlink:href="#k" transform="matrix(.562 .587 .38 -.618 65.61 -66.28)"/><ellipse cx="73.12" cy="13.42" fill="#2d5016" rx="3.88" ry="1.63"/><path fill="#d38d5f" d="M67.7 13.83h5.42v9.82h-3.11z"/><path fill="#c87137" d="M78.54 13.83h-5.42v9.82h3.12z"/><path fill="#decd87" d="m72.19-.4.93.27-4.1 14.86-.94-.26zm1.87.01-.94.26 4.11 14.86.94-.25z"/><path id="l" fill="#2d5016" stroke-width="38.85" d="M69.9 12.93c.24-.22 1.21-.22.98 0l-3.73 3.6c-2.97 2.85 2.02 5.38 2.02 9.5 0 4.1-2.64 4.94-1.62 8.92l.96 3.72c.08.31-.9.31-.97 0l-.96-3.72c-1.03-3.98 1.62-4.81 1.62-8.93 0-4.1-4.99-6.64-2.03-9.5z"/><use xlink:href="#l" transform="matrix(-.883 .192 -.192 -.883 140.35 33.9)"/><use xlink:href="#l" transform="matrix(1.152 .248 .25 -1.14 -16.06 40.75)"/><use xlink:href="#l" transform="matrix(-.95 .062 .02 1.046 142.98 -5.1)"/><use xlink:href="#l" transform="matrix(-.756 -.053 -.096 .835 126.7 6.2)"/><path id="m" fill="#447821" stroke-width="16.62" d="M62.44 41.29c-1.72-1.38-3.2-3.87-2.46-5.9.77-2.08 2.42-.9 3.64-.83Z"/><path id="n" fill="#5aa02c" stroke-width="16.62" d="M65.75 34.3c-.65-.03-1.45.3-2.13.26-1.82 2.93-1.18 6.73-1.18 6.73 2.01-2.46 5.15-2.77 4.42-5.9-.2-.82-.6-1.06-1.1-1.1Z"/><use xlink:href="#m" transform="matrix(.958 0 0 .902 4.42 -15.09)"/><use xlink:href="#n" transform="matrix(.958 0 0 .902 4.42 -15.09)"/><use xlink:href="#m" transform="matrix(.82 .12 -.095 .916 23.1 -18.58)"/><use xlink:href="#n" transform="matrix(.82 .12 -.095 .916 23.1 -18.58)"/><use xlink:href="#m" transform="matrix(-.778 .12 .09 .916 113.2 -8.33)"/><use xlink:href="#n" transform="matrix(-.778 .12 .09 .916 113.2 -8.33)"/><use xlink:href="#m" transform="matrix(-.81 .124 .094 .954 129.09 -22.98)"/><use xlink:href="#n" transform="matrix(-.81 .124 .094 .954 129.09 -22.98)"/><use xlink:href="#m" transform="matrix(-.624 .531 .58 .763 100.08 -29.23)"/><use xlink:href="#n" transform="matrix(-.624 .531 .58 .763 100.08 -29.23)"/><use xlink:href="#m" transform="matrix(-.778 .12 .09 .916 122.06 -5)"/><use xlink:href="#n" transform="matrix(-.778 .12 .09 .916 122.06 -5)"/><use xlink:href="#m" transform="matrix(-.624 .48 .52 .759 95.56 -40.43)"/><use xlink:href="#n" transform="matrix(-.624 .48 .52 .759 95.56 -40.43)"/><use xlink:href="#m" transform="matrix(.813 .348 -.37 1.004 28.43 -32.4)"/><use xlink:href="#n" transform="matrix(.813 .348 -.37 1.004 28.43 -32.4)"/><use xlink:href="#m" transform="matrix(.813 .348 -.37 1.004 39.6 -31.94)"/><use xlink:href="#n" transform="matrix(.813 .348 -.37 1.004 39.6 -31.94)"/><use xlink:href="#m" transform="matrix(.575 .232 -.261 .67 52.03 1.64)"/><use xlink:href="#n" transform="matrix(.575 .232 -.261 .67 52.03 1.64)"/><use xlink:href="#m" transform="matrix(.708 .264 -.321 .762 40.07 -11.95)"/><use xlink:href="#n" transform="matrix(.708 .264 -.321 .762 40.07 -11.95)"/><use xlink:href="#m" transform="matrix(-.665 .348 .302 1.004 99.48 -13.77)"/><use xlink:href="#n" transform="matrix(-.665 .348 .302 1.004 99.48 -13.77)"/><use xlink:href="#m" transform="matrix(-.171 .55 .624 .41 57.14 -10.38)"/><use xlink:href="#n" transform="matrix(-.171 .55 .624 .41 57.14 -10.38)"/><use xlink:href="#m" transform="matrix(.17 .55 -.62 .41 83.75 -35.95)"/><use xlink:href="#n" transform="matrix(.17 .55 -.62 .41 83.75 -35.95)"/><ellipse cx="100.15" cy="4.44" fill="#89a02c" rx="4.44" ry="2.22"/><path fill="#d38d5f" d="M93.72 5.1h6v6.63h-3.46z"/><path fill="#c87137" d="M105.7 5.1h-5.99v6.63h3.45z"/><path fill="#decd87" d="m98.68-9.12 1.04.26L95.17 6l-1.04-.26z"/><path fill="#decd87" d="m100.75-9.12-1.04.26L104.26 6l1.04-.26z"/><path id="o" fill="#89a02c" stroke-width="4.95" d="M98.9 3.13 104.13 5C96 1.67 93.9 11.81 93.84 23.97c-2.73-10.75 2.4-21.8 5.07-20.84Z"/><path id="p" fill="#abc837" stroke-width="4.95" d="M98.52 3.07c-2.58.13-6.77 9.48-5.05 19.14.15-9.82 1.72-18.08 6.9-18.56l-1.46-.52a1 1 0 0 0-.4-.06z"/><use xlink:href="#o" transform="matrix(.891 .135 -.155 .775 8.65 -13.01)"/><use xlink:href="#p" transform="matrix(.891 .135 -.155 .775 8.65 -13.01)"/><use xlink:href="#o" transform="matrix(.866 .118 -.151 .676 13.22 -10.96)"/><use xlink:href="#p" transform="matrix(.866 .118 -.151 .676 13.22 -10.96)"/><use xlink:href="#o" transform="matrix(.837 .252 -.255 .644 16.83 -23)"/><use xlink:href="#p" transform="matrix(.837 .252 -.255 .644 16.83 -23)"/><use xlink:href="#o" transform="matrix(1.058 .133 -.184 .763 -3.15 -11.4)"/><use xlink:href="#p" transform="matrix(1.058 .133 -.184 .763 -3.15 -11.4)"/><use xlink:href="#o" transform="matrix(.584 .65 -.552 .418 43.03 -62.2)"/><use xlink:href="#p" transform="matrix(.584 .65 -.552 .418 43.03 -62.2)"/><use xlink:href="#o" transform="matrix(.206 .736 -.55 .102 81.29 -70.17)"/><use xlink:href="#p" transform="matrix(.206 .736 -.55 .102 81.29 -70.17)"/><use xlink:href="#o" transform="matrix(-.755 .118 .132 .676 173.05 -9.04)"/><use xlink:href="#p" transform="matrix(-.755 .118 .132 .676 173.05 -9.04)"/><use xlink:href="#o" transform="matrix(-.73 .034 -.117 1.095 171.85 -3.08)"/><use xlink:href="#p" transform="matrix(-.73 .034 -.117 1.095 171.85 -3.08)"/><use xlink:href="#o" transform="matrix(.622 .034 .1 1.095 39.12 -3.08)"/><use xlink:href="#p" transform="matrix(.622 .034 .1 1.095 39.12 -3.08)"/><use xlink:href="#o" transform="matrix(.602 .131 -.13 .882 42.74 -12.9)"/><use xlink:href="#p" transform="matrix(.602 .131 -.13 .882 42.74 -12.9)"/><use xlink:href="#o" transform="matrix(-.614 .336 .22 .932 162.7 -32.86)"/><use xlink:href="#p" transform="matrix(-.614 .336 .22 .932 162.7 -32.86)"/><use xlink:href="#o" transform="matrix(-.323 .387 .431 .537 131.48 -35.15)"/><use xlink:href="#p" transform="matrix(-.323 .387 .431 .537 131.48 -35.15)"/><use xlink:href="#o" transform="matrix(-.263 .57 .543 .615 124.92 -56.43)"/><use xlink:href="#p" transform="matrix(-.263 .57 .543 .615 124.92 -56.43)"/><use xlink:href="#o" transform="matrix(.064 .892 .65 .338 91.5 -86.69)"/><use xlink:href="#p" transform="matrix(.064 .892 .65 .338 91.5 -86.69)"/><path id="q" fill="#250" stroke-width="14.46" d="M92.87 41c-2.14 3.71-.83 8.59-1.15 12.87l-.48 6.43c-.02.24-.74.24-.73 0l.49-6.43c.32-4.28-1-9.16 1.15-12.87 1.53-2.67 2.74-3.5.72 0z"/><path id="r" fill="#447821" stroke-width="14.46" d="M101.27 39.9H92.3c0-2.02.46-3.67 3.49-3.67 3.02 0 4.3 1.3 5.48 3.68z"/><path id="s" fill="#250" stroke-width="14.46" d="M92.3 39.75c-.75 2.96 1.64 3.8 3.49 3.83 3 0 3.43-1.2 5.48-3.67-4.64-.92-5.8-.96-8.97-.16Z"/><use xlink:href="#q" transform="rotate(11.5 55.14 60.35)"/><use xlink:href="#q" transform="matrix(-1.228 -.057 -.066 1.247 205.33 -5.85)"/><use xlink:href="#q" transform="matrix(-1.05 .199 .213 .98 173.43 -12.21)"/><use xlink:href="#r" transform="matrix(.85 0 0 .85 19.28 9.56)"/><use xlink:href="#s" transform="matrix(.85 0 0 .85 19.28 9.56)"/><use xlink:href="#r" transform="matrix(-.746 .553 .516 .68 132.26 -33.4)"/><use xlink:href="#s" transform="matrix(-.746 .553 .516 .68 132.26 -33.4)"/><use xlink:href="#r" transform="matrix(-.397 .986 .976 .329 85.46 -66.87)"/><use xlink:href="#s" transform="matrix(-.397 .986 .976 .329 85.46 -66.87)"/><rect width="8" height="1.5" x="85.39" y="66.55" fill="#c87137" rx=".75"/><path fill="#d38d5f" d="M86.89 59.67h2.51v6.89h-2.51z"/><path fill="#c87137" d="M94.14 59.67h-4.75v7.63h2.73z"/><g transform="translate(-7.68)"><rect width="10.87" height="19.01" x="31.91" y="48.72" fill="#467c69" rx="1.64"/><rect width="12.99" height="19.93" x="26.65" y="51.06" fill="#41544e" rx="3"/><rect width="61.45" height="19.93" x="34.29" y="51.06" fill="#516860" rx="3"/><rect width="45.33" height="14.26" x="38.18" y="48.72" fill="#53ab8c" rx="2"/><path fill="#467c69" d="M38.18 52.33h3.96v11.46h-3.96z"/><rect id="u" width="26.83" height="8" x="38.18" y="59.78" fill="#508d78" fill-opacity="1" stroke-width="15.42" rx="4"/><rect width="8.33" height="11.92" x="83.52" y="51.06" fill="#41544e" rx="1.26"/><path id="t" fill="#520" fill-opacity="1" stroke-width="14.46" d="M37.34 70.99h2.29v2.78h-2.29z"/><use xlink:href="#t" transform="translate(-7.47)"/><use xlink:href="#t" transform="translate(45.58)"/><use xlink:href="#t" transform="translate(53.05)"/><use xlink:href="#u" transform="translate(26.83)"/><circle cx="82.92" cy="55.86" r="3.92" fill="#467c69"/><circle id="v" cx="42.1" cy="56.25" r="3.92" fill="#508d78" fill-opacity="1" stroke-width="13.12"/><path fill="#467c69" d="M82.92 51.94h5v7.84h-5z"/><use xlink:href="#v" transform="translate(45.82 -.38)"/></g><circle cx="77.22" cy="30.81" r="1.94" fill="#fff6d5"/><path fill="#333" d="m77.13 24.66 2.9.56.21 6.84-6.45-1.15zm19.96 2.8h1.36v41.18h-1.36z"/><path fill="#333" d="M88.6 18.83c-4.41.06-9.36 4.49-10.92 6.48h1.64c2.56-2.57 5.24-5.3 9.3-5.3 4 0 8.47 3.2 8.47 7.57h1.36c0-4.36-4.47-8.83-9.86-8.75z"/><circle cx="30.08" cy="16.65" r="1.94" fill="#fff6d5"/><path fill="#333" d="M29.66-1.75h.84v13h-.84zm-1.55 13h3.94l1 6.14h-5.94z"/><circle cx="18.47" cy="12.45" r="1.94" fill="#fff6d5"/><path fill="#333" d="M18.05-5.95h.84v13h-.84zm-1.55 13h3.94l1 6.14H15.5z"/><rect width="14.74" height="4" x="90.63" y="67.43" fill="#333" rx="5"/><text xml:space="preserve" x="76.34" y="67.18" fill="#f2f2f2" stroke-width=".81" font-family="Arial" font-size="14.51" letter-spacing="-.48" style="border-radius:.5em;-inkscape-font-specification:Arial" transform="scale(.806 1.24)" word-spacing="1.61"><tspan x="76.34" y="67.18">COSY LEAF</tspan></text><path id="w" fill="#338000" stroke-width="14.46" d="M137.53 59.62c-1.95.02-3.67.07-5.22.2l-1.55 2.95.12-2.77c-5.09.71-7.94 2.77-9.58 8.56 21.52-3.9 35.34 4.66 39.2 11 6.63-5.02 6.77-4.3.35-10.88l-.02-.02-3.72 1.17 2.52-2.34a29.07 29.07 0 0 0-5.7-4.16l-.52 1.46-.2-1.85c-3.9-2.01-8.2-3.02-13.05-3.26l-.9 2.53-.26-2.57-1.47-.02z"/><path id="x" fill="#4a0" stroke-width="14.46" d="M135.39 63.46a38.1 38.1 0 0 0-7.03.68l.08 1.78-.85-1.61c-3.37.8-5.88 2.16-6.29 4.25 21.52-3.9 35.34 4.66 39.2 11 6.63-5.02 6.4-3.78-.7-9.14a32.72 32.72 0 0 0-6.72-3.95l-.86 1.6.1-1.92c-2.49-1-4.98-1.62-7.53-2.02l-1.19 2.2.12-2.36a64.27 64.27 0 0 0-8.33-.51z"/><use xlink:href="#w" transform="matrix(1.09 -.412 .545 .823 -52.94 84.7)"/><use xlink:href="#x" transform="matrix(1.09 -.412 .545 .823 -52.94 84.7)"/><use xlink:href="#w" transform="matrix(.88 .21 .026 .941 32.86 -31.33)"/><use xlink:href="#x" transform="matrix(.88 .21 .026 .941 32.86 -31.33)"/><use xlink:href="#w" transform="matrix(.764 -.765 .883 .667 -16.49 156.87)"/><use xlink:href="#x" transform="matrix(.764 -.765 .883 .667 -16.49 156.87)"/><path id="y" fill="#445016" stroke-width="14.46" d="M16.08 69.88c-1.92 0-3.67.4-5.27 1.03.25.48.62.99 1.18 1.54a7.6 7.6 0 0 1-1.9-1.24c-3.48 1.57-6.14 4.2-7.95 5.95-.3.3-.6.62-.9.95.14.49.37 1.02.75 1.63A8.6 8.6 0 0 1 .83 78.6c-.48.59-.93 1.21-1.36 1.87.32.5.82 1.03 1.57 1.57a7.73 7.73 0 0 1-2-.88c-2.24 3.75-3.4 8.15-1.5 9.89z"/><path id="z" fill="#677821" stroke-width="14.46" d="M16.08 69.88c-3.65 2.42-7.31 5.93-10.66 9.67a57.53 57.53 0 0 0-8 11.38l.12.12c1.55 1.43 8.24-1.77 11.74-5.69a79.57 79.57 0 0 0 2.98-3.5 9.67 9.67 0 0 1-2.28-2.43 6.6 6.6 0 0 0 2.95 1.56c2-2.65 3.1-4.85 3.39-7.16-.6-.26-1.26-.63-1.97-1.11.79.26 1.45.4 2.03.46.06-.97-.08-2.22-.3-3.3z"/><use xlink:href="#y" transform="rotate(-34.8 -6.83 86.03)"/><use xlink:href="#z" transform="rotate(-34.8 -6.83 86.03)"/><use xlink:href="#y"/><use xlink:href="#z"/><path fill="#445016" d="M25.23 86.78a19.99 19.99 0 0 0-6.34-1.74c-.02.56.08 1.22.35 2a7.53 7.53 0 0 1-1.3-2.09c-4.74-.33-9.23.7-12.26 1.38-.5.12-1.03.25-1.55.41a5.6 5.6 0 0 0-.17 1.85 7.87 7.87 0 0 1-.58-1.61 29 29 0 0 0-2.6 1c.04.62.26 1.35.75 2.22A8.33 8.33 0 0 1-.1 88.4c-4.71 2.27-8.63 5.67-7.63 8.2z"/><path fill="#677821" d="M25.23 86.78c-5.42.34-11.53 1.68-17.43 3.38a78.33 78.33 0 0 0-15.58 6.28l.05.17c.82 2.08 10.03 2.57 16.2.78 2-.58 3.78-1.13 5.36-1.67a8.75 8.75 0 0 1-1-3.37 6.94 6.94 0 0 0 2.26 2.92c3.77-1.4 6.3-2.84 8.02-4.79-.5-.54-.99-1.2-1.46-2 .69.63 1.32 1.1 1.92 1.45.65-.86 1.25-2.07 1.66-3.15z"/></svg>