<svg xmlns="http://www.w3.org/2000/svg" xmlns:xlink="http://www.w3.org/1999/xlink" xml:space="preserve" style="border-radius:.5em" viewBox="0 0 160 90"><defs><radialGradient xlink:href="#a" id="c" cx="94.62" cy="107.84" r="80" fx="94.62" fy="107.84" gradientTransform="matrix(1.478 -.71 .543 1.13 -74.22 35.4)" gradientUnits="userSpaceOnUse"/><radialGradient xlink:href="#b" id="e" cx="90.26" cy="63.27" r="50.82" fx="90.26" fy="63.27" gradientTransform="matrix(1.341 0 0 .373 -111.12 -119.65)" gradientUnits="userSpaceOnUse"/><linearGradient id="b"><stop offset="0" stop-color="#302136"/><stop offset="1" stop-color="#302136" stop-opacity="0"/></linearGradient><linearGradient id="a"><stop offset="0" stop-color="#1d213c"/><stop offset="1" stop-color="#0c0a17"/></linearGradient></defs><path fill="url(#c)" d="M0 0h160v90H0z"/><g transform="translate(-14.7 -5.13)"><path id="d" fill="#fff" fill-opacity="1" stroke="none" stroke-width="1.62" d="M91.7 111h1.35v1.35H91.7z" transform="rotate(-45)"/><use xlink:href="#d" transform="translate(-78.9 12.7)"/><use xlink:href="#d" transform="translate(-72.5 5.26)"/><use xlink:href="#d" transform="translate(19.7 15.5)"/><use xlink:href="#d" transform="translate(-108 -2.8)"/><use xlink:href="#d" transform="translate(-112 24.4)"/><use xlink:href="#d" transform="translate(24.1 -1.3)"/><use xlink:href="#d" transform="translate(-97.9 7.85)"/><use xlink:href="#d" transform="matrix(.7 0 0 .7 27.1 13.7)"/><use xlink:href="#d" transform="matrix(.7 0 0 .7 35.3 7.2)"/><use xlink:href="#d" transform="matrix(.7 0 0 .7 54.7 19.5)"/><use xlink:href="#d" transform="matrix(.7 0 0 .7 -18.8 .2)"/><use xlink:href="#d" transform="matrix(.7 0 0 .7 18.9 5.62)"/><use xlink:href="#d" transform="matrix(.49 0 0 .49 -28.2 22.4)"/><use xlink:href="#d" transform="matrix(.49 0 0 .49 29.8 7.8)"/><use xlink:href="#d" transform="matrix(.49 0 0 .49 84.8 29.2)"/><use xlink:href="#d" transform="matrix(.49 0 0 .49 55.7 36.6)"/><use xlink:href="#d" transform="matrix(.49 0 0 .49 -1.3 25.7)"/><use xlink:href="#d" transform="matrix(.49 0 0 .49 -2 54.1)"/><use xlink:href="#d" transform="matrix(.49 0 0 .49 33.3 62.6)"/><use xlink:href="#d" transform="matrix(.49 0 0 .49 31.1 37.6)"/><use xlink:href="#d" transform="matrix(.49 0 0 .49 -4.3 2.3)"/></g><path fill="url(#e)" d="M-58.24-122.77h136.3v53.46h-136.3z" transform="rotate(125)"/><text xml:space="preserve" x="76.65" y="30.36" fill="#f2f2f2" stroke-width=".81" font-family="Arial" font-size="14.51" letter-spacing="-.48" style="border-radius:.5em;-inkscape-font-specification:Arial" transform="scale(.806 1.24)" word-spacing="1.61"><tspan x="76.65" y="30.36">ECHECS</tspan></text><text xml:space="preserve" x="76.72" y="45.94" fill="#f2f2f2" stroke-width=".81" font-family="Arial" font-size="14.51" letter-spacing="-.48" style="border-radius:.5em;-inkscape-font-specification:Arial" transform="scale(.806 1.24)" word-spacing="1.61"><tspan x="76.72" y="45.94">MARTIENS</tspan></text><ellipse cx="179.81" cy="109" fill="#ff4e12" rx="83.53" ry="74.93"/><path fill="#dc3d3a" d="m165.09 32.84-27.43 8.09.24 4.07h.03c0 .12.01.24.04.36.84 2.33 8.4 1.73 16.88-1.34 2.96-1 22.07-10.7 10.24-11.18z"/><ellipse cx="130.38" cy="85.68" fill="#a13636" stroke="#ff4e12" stroke-width="1.5" rx="14.11" ry="3.88" transform="rotate(-19.9)"/><path fill="#dc3d3a" d="m129.37 69.8-6.33 27.38c2.9 1.06 7.41-4 10.1-11.32 2.7-7.32 2.53-14.1-.36-15.17z"/><ellipse cx="-34.87" cy="146.21" fill="#a13636" stroke="#ff4e12" stroke-width="1.5" rx="14.11" ry="5.57" transform="rotate(-69.8)"/><path fill="#dc3d3a" d="m117.57 54.33-12.95 15.7 1.44 3.5c1.4 1.18 6.07-1.99 10.41-7.08 4.34-5.1 6.72-10.18 5.31-11.36z"/><ellipse cx="23.69" cy="125.69" fill="#a13636" stroke="#ff4e12" stroke-width="1.36" rx="9.77" ry="2.68" transform="rotate(-49.5) skewX(.5)"/><ellipse cx="-5.36" cy="133.89" fill="#ff4e12" rx="90.64" ry="74.93"/><path fill="#dc3d3a" d="m25.8 90.89 22.77-19.54 18.69 21.78-22.77 19.53z"/><ellipse cx="109.93" cy="24.73" fill="#a13636" stroke="#ff4e12" stroke-width="2.37" rx="26.08" ry="7.49" transform="rotate(40)"/><rect width="20.43" height="9.74" x="120.02" y="51.03" fill="#b3b3b3" rx="3.56"/><path fill="#b3b3b3" d="M126.78 37.43h6.91l3.44 16.77h-13.79z"/><rect width="17.32" height="5.72" x="121.57" y="34.57" fill="#b3b3b3" rx="2.86"/><circle cx="130.23" cy="30.75" r="5.86" fill="#b3b3b3"/><path fill="#f9f9f9" d="M123.58 51.03a3.56 3.56 0 0 0-3.56 3.56v2.61a3.56 3.56 0 0 0 3.56 3.57h11.6c1.97 0 3.56-1.6 3.56-3.57v-2.6a3.56 3.56 0 0 0-3.57-3.57z"/><path fill="#f9f9f9" d="m125.91 41.65-2.57 12.55h12.2l-2.57-12.55zm-1.47-7.08a2.86 2.86 0 1 0 0 5.73h9.82a2.86 2.86 0 1 0 0-5.73z"/><path fill="#f9f9f9" d="M130.23 24.9a5.86 5.86 0 0 0-5.86 5.85 5.86 5.86 0 0 0 1.63 4.03 5.86 5.86 0 0 0 3.2.96 5.86 5.86 0 0 0 5.86-5.86 5.86 5.86 0 0 0-1.59-4.01 5.86 5.86 0 0 0-3.24-.98z"/><rect width="39.65" height="18.9" x="-17.65" y="49.5" fill="#1a1a1a" rx="6.92"/><path fill="#1a1a1a" d="M-4.53 23.12H8.88l6.67 32.53H-11.2z"/><rect width="33.61" height="11.11" x="-14.63" y="17.57" fill="#1a1a1a" rx="5.55"/><circle cx="2.18" cy="10.16" r="11.37" fill="#1a1a1a"/><path fill="#333" d="M-10.73 49.5a6.9 6.9 0 0 0-6.92 6.92v5.07a6.9 6.9 0 0 0 6.92 6.92h22.49a6.9 6.9 0 0 0 6.92-6.92v-5.07a6.9 6.9 0 0 0-6.92-6.92z"/><path fill="#333" d="m-6.2 31.31-5 24.34h23.68L7.49 31.3Zm-2.88-13.74a5.54 5.54 0 1 0 0 11.1H10a5.54 5.54 0 1 0 0-11.1z"/><path fill="#333" d="M2.18-1.22A11.37 11.37 0 0 0-9.2 10.15a11.37 11.37 0 0 0 3.16 7.83 11.37 11.37 0 0 0 6.22 1.86A11.37 11.37 0 0 0 11.55 8.46 11.37 11.37 0 0 0 8.45.68a11.37 11.37 0 0 0-6.27-1.9Z"/><rect width="13.19" height="7.1" x="73.68" y="80.79" fill="#ccc" rx="4.56"/><path fill="#b3b3b3" d="M80.38 83.1c-2.53 0-4.56 1.6-4.56 3.56 0 .25.03.5.1.74.67.31 1.47.5 2.32.5h4.08c2.53 0 4.56-1.59 4.56-3.56 0-.25-.04-.5-.1-.73a5.56 5.56 0 0 0-2.33-.5z"/><rect width="24.36" height="10.96" x="-46.09" y="57.5" fill="#b3b3b3" rx="4.88" transform="rotate(-33.7)"/><circle cx="38.58" cy="41.31" r="14.96" fill="#d5bb4e"/><path fill="#b1972a" d="M38.94 26.37a16.36 16.36 0 0 0-14.79 16.26 16.36 16.36 0 0 0 .53 4.1 14.96 14.96 0 0 0 13.9 9.54 14.96 14.96 0 0 0 8.45-2.65l-5.26-7.93 6.57-15.7a14.96 14.96 0 0 0-9.4-3.62z"/><path fill="#e6e6e6" d="M38.58 57.68A16.36 16.36 0 0 1 22.22 41.3a16.36 16.36 0 0 1 16.36-16.36 16.36 16.36 0 0 1 8.4 2.35l-7.14 17.07 7.24 10.92a16.36 16.36 0 0 1-8.5 2.39z"/><path fill="#f9f9f9" d="M38.45 27.48a8.8 10.9 20.44 0 0-12.06 7.14l3.06 1.14a5.52 7.64 20.44 0 1 7.84-5.22 5.52 7.64 20.44 0 1 .02 0z"/><circle cx="38.45" cy="23.23" r="1.63" fill="#f9f9f9" transform="rotate(20.4)"/><circle cx="45.63" cy="13.96" r="1.63" fill="#f9f9f9" transform="rotate(20.4)"/><path fill="#b3b3b3" d="m-44.42 20.16-.17 1.5c-.82 7.6 6.02 14.28 14.86 15.24l1.5.16.8-7.42-1.49-.17c-2.58-.28-4.8-1.3-6.26-2.62s-2.15-2.84-1.98-4.36v-.02l.17-1.5z" color="#000" style="-inkscape-stroke:none" transform="translate(62.33 21.62)"/><circle cx="-38.87" cy="26.06" r="3.74" fill="#b3b3b3" transform="rotate(-83.8)"/><path fill="#999" d="M23.25 38.06a3.74 3.74 0 0 0-.4 1.24 3.74 3.74 0 0 0 0 .74h-.07l-.16 1.48c-.73 6.7 4.47 12.66 11.75 14.66l.53-4.92-1.49-.16c-2.58-.29-4.8-1.3-6.26-2.63-1.46-1.32-2.15-2.84-1.98-4.36v-.02l.17-1.5h-.09a3.74 3.74 0 0 0 .17-.73 3.74 3.74 0 0 0-2.17-3.8z" color="#000"/><rect width="38.16" height="52.1" x="21.77" y="46.78" fill="#ccc" rx="15.18" transform="rotate(5.8) skewX(-.7)"/><rect width="27.85" height="12.63" x="72.75" y="-8.3" fill="#e6e6e6" rx="5" transform="rotate(55)"/><path fill="#b3b3b3" d="M47.16 56.83c-.46 0-.92.08-1.37.22.1.2.2.4.34.58l10.23 14.63a4.99 4.99 0 0 0 5.55 1.91c-.1-.2-.2-.39-.34-.58L51.35 58.97a5 5 0 0 0-4.19-2.14z"/><rect width="30.17" height="41.57" x="22.14" y="52.02" fill="#999" rx="7.78" transform="rotate(6.2) skewX(-.6)"/><rect width="30.17" height="41.57" x="16.94" y="48.92" fill="#ccc" rx="7.78" transform="rotate(6.2) skewX(-.6)"/><rect width="25.17" height="10.96" x="80.11" y="43.16" fill="#e6e6e6" rx="4.56" transform="rotate(23.5)"/><path fill="#b3b3b3" d="M57.5 71.97c-1.05 1.06.37 3.27 1.45 3.74l16 6.96c.91.4 1.88.5 2.8.35a4.54 4.54 0 0 0-2.64-3.24z"/><rect width="7.78" height="5.52" x="33.57" y="45.06" fill="#b3b3b3" rx="3" transform="rotate(6.3)"/><rect width="8.3" height="5.23" x="54.34" y="-26.14" fill="#b3b3b3" rx="3.2" transform="matrix(-.107 .994 -.987 -.164 0 0)"/><rect width="14.61" height="10.63" x="24.57" y="79.85" fill="#b3b3b3" rx="3.46" transform="rotate(4.4) skewX(-.8)"/></svg>