<svg xmlns="http://www.w3.org/2000/svg" xmlns:xlink="http://www.w3.org/1999/xlink" xml:space="preserve" style="border-radius:.5em" viewBox="0 0 160 90"><defs><radialGradient xlink:href="#a" id="c" cx="130.1" cy="105.58" r="80" fx="130.1" fy="105.58" gradientTransform="matrix(-1.427 .415 -.338 -1.162 351.4 147.74)" gradientUnits="userSpaceOnUse"/><radialGradient xlink:href="#b" id="d" cx="-37.73" cy="-52.94" r="20.69" fx="-37.73" fy="-52.94" gradientTransform="matrix(2.139 0 0 4.668 113.25 311.26)" gradientUnits="userSpaceOnUse"/><linearGradient id="b"><stop offset="0" stop-color="#19583a"/><stop offset="1" stop-opacity="0"/></linearGradient><linearGradient id="a"><stop offset="0" stop-color="#2e2035"/><stop offset="1" stop-color="#0c0a17"/></linearGradient></defs><path fill="url(#c)" d="M0 0h160v90H0z"/><path fill="url(#d)" d="M-11.7-32.47h88.5V160.7h-88.5z" transform="matrix(.963 -.27 .402 .915 0 0)"/><text xml:space="preserve" x="112.33" y="60.16" fill="#f2f2f2" stroke-width=".81" font-family="Arial" font-size="12.9" letter-spacing="-.48" style="-inkscape-font-specification:Arial" transform="scale(.806 1.24)" word-spacing="1.61"><tspan x="112.33" y="60.16">GENERATEUR</tspan></text><text xml:space="preserve" x="86.6" y="70.72" fill="#f2f2f2" stroke-width=".81" font-family="Arial" font-size="12.9" letter-spacing="-.48" style="-inkscape-font-specification:Arial" transform="scale(.806 1.24)" word-spacing="1.61"><tspan x="86.6" y="70.72">DE PARTICULES</tspan></text><g transform="translate(4.87 6.09)"><path fill="#411649" d="M75.42 2.38a32.77 32.77 0 0 0-34.97 15.5 22.15 11.37 11.92 0 1 8.88.87 22.15 11.37 11.92 0 1 19.32 15.7 22.15 11.37 11.92 0 1 24.02-6.55 22.15 11.37 11.92 0 1 8.53 2.83A32.77 32.77 0 0 0 75.42 2.38Zm-6.77 32.07A22.15 11.37 11.92 0 1 44.63 41a22.15 11.37 11.92 0 1-8.47-2.8 32.77 32.77 0 0 0 25.72 28.32A32.77 32.77 0 0 0 96.86 51a22.15 11.37 11.92 0 1-8.89-.86 22.15 11.37 11.92 0 1-19.32-15.7z"/><path fill="#e75fe7" d="M59.05 1.85a3.34 3.34 0 0 0-3.96 2.58 3.34 3.34 0 0 0 2.58 3.96 7.52 13.37 11.92 0 1 4.6 14.63 3.34 3.34 0 0 0 2.58 3.96 3.34 3.34 0 0 0 3.96-2.58 14.2 20.05 11.92 0 0-9.76-22.55zm-9.28 60.22a3.34 3.28 11.92 0 1-2.59-3.9 3.34 3.28 11.92 0 1 3.95-2.52 7.52 13.13 11.92 0 0 10.07-11.3 3.34 3.28 11.92 0 1 3.95-2.52 3.34 3.28 11.92 0 1 2.59 3.9 14.2 19.7 11.92 0 1-17.97 16.34Z"/><path fill="#e75fe7" d="M87.37 11.6a3.16 3.27 19.28 0 1 1.91 4.13 3.16 3.27 19.28 0 1-4.07 2.04 7.12 13.1 19.28 0 0-11.04 10.01 3.16 3.27 19.28 0 1-4.06 2.05 3.16 3.27 19.28 0 1-1.9-4.13 13.44 19.64 19.28 0 1 19.16-14.1ZM76.75 62.81a2.5 2.5 0 0 0 2.7-2.26 2.5 2.5 0 0 0-2.26-2.7 5.62 9.98 5.06 0 1-4.72-10.45 2.5 2.5 0 0 0-2.27-2.7 2.5 2.5 0 0 0-2.7 2.26 10.6 14.98 5.06 0 0 9.25 15.85z"/><path fill="#e75fe7" d="M71.79 28.91a2.5 2.5 0 0 0 1.66 3.12 2.5 2.5 0 0 0 3.12-1.67 9.98 5.62 16.87 0 1 11.18-2.48 2.5 2.5 0 0 0 3.11-1.66 2.5 2.5 0 0 0-1.66-3.11 14.98 10.6 16.87 0 0-17.41 5.8z"/><path fill="#ee8eee" d="M66.24 29.19a2.43 2.5 18.95 0 1-2.78 2.12 2.43 2.5 18.95 0 1-2.04-2.8 9.73 5.61 7.73 0 0-8.8-6.9 2.43 2.5 18.95 0 1-2.04-2.8 2.43 2.5 18.95 0 1 2.78-2.14A14.6 10.6 7.38 0 1 66.24 29.2Z"/><path fill="#e75fe7" d="M62.65 41.91a2.17 2.25 6.53 0 0-1.5-2.76 2.17 2.25 6.53 0 0-2.68 1.57 8.7 5.05 16.19 0 1-9.7 2.5 2.17 2.25 6.53 0 0-2.68 1.57 2.17 2.25 6.53 0 0 1.5 2.77 13.05 9.55 16.58 0 0 15.06-5.65z"/><rect width="2.07" height="8.98" x="32.1" y="-102.33" fill="#e75fe7" rx="1.04" transform="rotate(103.4)"/><path fill="#ee8eee" d="M71.06 45.22a2.53 2.25 10.35 0 1 2.81-1.86 2.53 2.25 10.35 0 1 2.19 2.6 10.12 5.06 8.69 0 0 9.3 6.51 2.53 2.25 10.35 0 1 2.18 2.6 2.53 2.25 10.35 0 1-2.81 1.86 15.17 9.55 8.84 0 1-13.67-11.71z"/><rect width="1.67" height="10.03" x="67.13" y="16.82" fill="#ee8eee" rx=".84" transform="rotate(3.4)"/><rect width="1.67" height="10.03" x="74.47" y="7.83" fill="#ee8eee" rx=".84" transform="rotate(25.9)"/><rect width="1.67" height="10.03" x="73.45" y="7.54" fill="#ee8eee" rx=".84" transform="rotate(12)"/><rect width="1.67" height="10.03" x="74.89" y="23.61" fill="#ee8eee" rx=".84" transform="rotate(12)"/><rect width="1.67" height="10.03" x="77.95" y="-14.4" fill="#ee8eee" rx=".84" transform="rotate(25.9)"/><rect width="1.67" height="10.03" x="73" y="37.45" fill="#ee8eee" rx=".84" transform="rotate(3.4)"/><path fill="#fff" d="M73.43 33.44a1.25 1.25 0 0 0-1.38.68l-17.1-3.6c-.56-.12-1.1.15-1.36.62l-16.4-3.46a1.25 1.25 0 1 0-.51 2.45l9.8 2.07c-.02.6.39 1.13.99 1.26l17.98 3.8c.5.1 1-.1 1.28-.5a.9.9 0 0 0 .23.08l17.98 3.8c.54.1 1.07-.14 1.33-.58L102 43.38a1.25 1.25 0 1 0 .52-2.45l-10.15-2.15.01-.06a1.25 1.25 0 0 0-.96-1.48z"/><path fill="#f5bdf5" d="M61.9 33.02a.82.82 0 0 0-.98.65L50 31.37a.83.83 0 1 0-.35 1.63l13.5 2.85 11.25 2.38c.28.06.55-.03.75-.21l12.46 2.63a.83.83 0 1 0 .34-1.64L76.04 36.5a.83.83 0 0 0-.64-.63z"/><rect width="2.51" height="10.86" x="71.93" y="-21.97" fill="#ee8eee" rx="1.25" transform="rotate(21.2)"/><rect width="2.51" height="10.86" x="73.32" y="-34.42" fill="#e75fe7" rx="1.25" transform="rotate(27.8)"/><rect width="2.51" height="10.86" x="66.47" y="10.66" fill="#e75fe7" rx="1.25" transform="rotate(-8.3)"/><rect width="2.51" height="10.86" x="22.91" y="48.43" fill="#e75fe7" rx="1.25" transform="rotate(-50.8)"/><rect width="2.07" height="8.98" x="-13.39" y="42.45" fill="#e75fe7" rx="1.04" transform="rotate(-84.4)"/><rect width="2.07" height="8.98" x="-30.32" y="46.12" fill="#e75fe7" rx="1.04" transform="rotate(-74.7)"/><rect width="2.07" height="8.98" x="-68.12" y="22.73" fill="#e75fe7" rx="1.04" transform="rotate(-112.9)"/><rect width="2.07" height="8.98" x="-50.53" y="38.11" fill="#e75fe7" rx="1.04" transform="rotate(-90.7)"/><rect width="2.07" height="8.98" x="-81.24" y="-34.79" fill="#ee8eee" rx="1.04" transform="rotate(-159.3)"/><rect width="2.07" height="8.98" x="-56.95" y="-78.53" fill="#e75fe7" rx="1.04" transform="rotate(169.4)"/><rect width="2.07" height="8.98" x="21.14" y="-103.91" fill="#e75fe7" rx="1.04" transform="rotate(112.7)"/><rect width="2.07" height="8.98" x="42.7" y="-99.28" fill="#e75fe7" rx="1.04" transform="rotate(94.9)"/><rect width="2.07" height="8.98" x="-85.99" y="-34.69" fill="#e75fe7" rx="1.04" transform="rotate(-155)"/><rect width="2.07" height="8.98" x="29.21" y="41.6" fill="#e75fe7" rx="1.04" transform="rotate(-45.5)"/><rect width="2.07" height="8.98" x="16.47" y="-94.1" fill="#e75fe7" rx="1.04" transform="rotate(91.3)"/><rect width="2.07" height="8.98" x="-8.22" y="-103.86" fill="#e75fe7" rx="1.04" transform="rotate(109.5)"/><rect width="2.07" height="8.98" x="14.54" y="-99.82" fill="#e75fe7" rx="1.04" transform="rotate(94)"/><rect width="14.2" height="1.67" x="28.75" y="19.76" fill="#fff" fill-opacity=".6" rx=".84" transform="rotate(12)"/><rect width="14.2" height="1.67" x="108.29" y="19.28" fill="#fff" fill-opacity=".6" rx=".84" transform="rotate(12)"/></g><path fill="#d02f00" d="M15.87 39.93c-1.2 0-2.16.97-2.16 2.16v3.1h-.03c-1.2 0-2.16.97-2.16 2.17v.48a2.17 2.17 0 0 0-.94-.08v-2.68a2.16 2.16 0 1 0-4.33 0v7.25c0 1.06.76 1.94 1.76 2.13v2.43a2.15 2.15 0 0 0-1.88 2.14v7.26c0 1.2.97 2.16 2.17 2.16l24.68 1.4c1.2 0 2.17-.96 2.17-2.16v-7.26c0-.71-.35-1.34-.88-1.73v-3.8a2.16 2.16 0 0 0-2.63-2.1v-4.91a2.16 2.16 0 1 0-4.33 0v1.29c-.2-.16-.43-.29-.68-.37v-1.27c0-1.1-.8-1.99-1.84-2.14v-2.08a2.16 2.16 0 1 0-4.32 0v1.73a2.16 2.16 0 0 0-2.43.18V42.1c0-1.2-.97-2.17-2.17-2.17z"/><path fill="#f3580b" d="M21.84 50.59c-1.2 0-2.16.96-2.16 2.16v2.38a2.16 2.16 0 0 0-2.74 2.08v2.48a2.16 2.16 0 0 0-2.06-.13v-1.8a2.16 2.16 0 1 0-4.33 0v4.42c-1.14.05-2.05 1-2.05 2.15v3.28a2.16 2.16 0 0 0-3.48 1.72v6.92c0 1.2.97 2.16 2.17 2.16h.17v2.06a2.16 2.16 0 0 0 3.96 1.2c.27.29.62.5 1.01.6.19.56.6 1.02 1.12 1.27v.18a2.16 2.16 0 0 0 3.73 1.49 2.16 2.16 0 0 0 4.28-.41 2.16 2.16 0 0 0 4.3-.31v-.3a2.16 2.16 0 0 0 2.98-2V80.9c.13.02.25.04.38.04.47 0 .9-.16 1.26-.41a2.16 2.16 0 0 0 4.24-.6v-3.82a2.16 2.16 0 0 0 1.93-2.15v-6.92a2.16 2.16 0 0 0-3.89-1.31v-2.2a2.16 2.16 0 1 0-4.32 0v.6a2.17 2.17 0 0 0-.74 0V59.6a2.16 2.16 0 0 0-3.6-1.62v-5.23c0-1.2-.96-2.16-2.16-2.16z"/><path fill="#fb9803" d="M21.34 57.2c-1.2 0-2.16.96-2.16 2.16v.98a2.17 2.17 0 0 0-2.8 2.07v4.24a2.16 2.16 0 0 0-4.18.74v8.46c0 1.1.82 2 1.88 2.14v.13c0 2.38 1.91 4.3 4.3 4.32a2.16 2.16 0 0 0 2.1 1.67h1.73c1.1 0 2-.82 2.14-1.88 1.74-.56 3-2.18 3-4.11v-.44c1.2 0 2.16-.96 2.16-2.16v-3.55c0-1.2-.97-2.17-2.17-2.17v-2.32a2.16 2.16 0 0 0-3.83-1.37v-6.75c0-1.2-.97-2.17-2.17-2.17z"/><path fill="#f8de3c" d="M20.7 67.54c-1.2 0-2.16.96-2.16 2.16v.52a2.16 2.16 0 0 0-3.14 1.94v4.6a2.16 2.16 0 0 0 2.7 2.09v.89a2.16 2.16 0 0 0 4.07 1.02 2.16 2.16 0 0 0 2.6-2.12v-4.6c0-1.1-.83-2.01-1.9-2.14v-2.2c0-1.2-.97-2.16-2.17-2.16z"/><rect width="2.6" height="6.93" x="14.21" y="46.73" fill="#f3580b" rx="1.3"/><rect width="2.6" height="6.93" x="7.21" y="47.12" fill="#f3580b" rx="1.3"/><rect width="2.6" height="6.93" x="32.65" y="53.7" fill="#f3580b" rx="1.3"/><rect width="2.6" height="6.93" x="26.25" y="35.04" fill="#d02f00" rx="1.3"/><rect width="2.6" height="6.93" x="30.11" y="43.2" fill="#d02f00" rx="1.3"/><rect width="2.6" height="6.93" x="36.34" y="56.18" fill="#d02f00" rx="1.3"/><rect width="2.6" height="6.93" x="2.73" y="49.25" fill="#d02f00" rx="1.3"/><rect width="2.6" height="6.93" x="26.99" y="50.44" fill="#d02f00" rx="1.3"/><rect width="2.6" height="6.93" x="9.75" y="35.48" fill="#d02f00" rx="1.3"/><rect width="2.6" height="6.93" x="20.19" y="31.7" fill="#d02f00" rx="1.3"/><g transform="rotate(34)"><rect width="12" height="2" x="104.27" y="-56.56" fill="#1bc2c1" rx="1"/><rect width="21.75" height="3.63" x="121.65" y="-53.45" fill="#1bc2c1" rx="1.81"/><rect width="14.01" height="2.33" x="133.41" y="-58.52" fill="#1bc2c1" rx="1.17"/><rect width="14.73" height="3.63" x="131.83" y="-49.91" fill="#1bc2c1" rx="1.23"/><rect width="21.75" height="3.63" x="121.65" y="-50.2" fill="#1bc2c1" rx="1.81"/><rect width="21.75" height="3.63" x="109.45" y="-52.93" fill="#1bc2c1" rx="1.81"/><rect width="21.75" height="3.63" x="121.36" y="-56.65" fill="#1bc2c1" rx="1.81"/><circle cx="145.71" cy="-52.46" r="5.17" fill="#9ce6e5"/><circle cx="147.87" cy="-52.83" r="2.44" fill="#d1f3f3"/><rect width="12" height="2" x="94.82" y="-51.54" fill="#1bc2c1" rx="1"/><rect width="12" height="2" x="106.16" y="-48.38" fill="#1bc2c1" rx="1"/><rect width="12" height="2" x="130.4" y="-50.53" fill="#5ee2e1" rx="1"/><rect width="12" height="2" x="124.66" y="-52.11" fill="#5ee2e1" rx="1"/><rect width="12" height="2" x="129.39" y="-54.98" fill="#5ee2e1" rx="1"/><rect width="12" height="2" x="128.24" y="-57.71" fill="#5ee2e1" rx="1"/><rect width="12" height="2" x="111.61" y="-54.26" fill="#5ee2e1" rx="1"/><rect width="12" height="2" x="112.47" y="-49.53" fill="#5ee2e1" rx="1"/><rect width="12" height="2" x="117.34" y="-46.09" fill="#5ee2e1" rx="1"/><rect width="12" height="2" x="88.51" y="-47.95" fill="#5ee2e1" rx="1"/><rect width="12" height="2" x="98.98" y="-49.67" fill="#5ee2e1" rx="1"/></g></svg>