<svg xmlns="http://www.w3.org/2000/svg" xmlns:xlink="http://www.w3.org/1999/xlink" xml:space="preserve" style="border-radius:.5em" viewBox="0 0 160 90"><defs><linearGradient id="d"><stop offset=".15" stop-color="#050514"/><stop offset=".5" stop-color="#0b0b35"/><stop offset=".85" stop-color="#050514"/></linearGradient><linearGradient id="a"><stop offset="0" stop-color="#ee6511" stop-opacity=".17"/><stop offset="1" stop-color="#fff" stop-opacity="0"/></linearGradient><linearGradient id="c"><stop offset="0" stop-color="#430b62" stop-opacity=".42"/><stop offset="1" stop-color="#430b62" stop-opacity="0"/></linearGradient><linearGradient id="b"><stop offset="0" stop-color="#1d213c"/><stop offset="1" stop-color="#0c0a17"/></linearGradient><linearGradient xlink:href="#d" id="e" x1="80" x2="80" y1="0" y2="90" gradientUnits="userSpaceOnUse"/></defs><g style="border-radius:.5em"><path fill="url(#e)" d="M0 0h160v90H0z" style="border-radius:.5em"/><rect width="3" height="27.5" x="15.14" y="30.47" fill="#164450" rx="1.5" style="border-radius:.5em"/><rect width="3" height="40.29" x="22.59" y="24.08" fill="#164450" rx="1.5" style="border-radius:.5em"/><rect width="3" height="60.12" x="30.05" y="14.16" fill="#164450" rx="1.5" style="border-radius:.5em"/><rect width="3" height="32.62" x="37.5" y="28.25" fill="#164450" rx="1.5" style="border-radius:.5em"/><rect width="3" height="21.75" x="44.96" y="33.69" fill="#164450" rx="1.5" style="border-radius:.5em"/><rect width="3" height="7.36" x="52.41" y="40.89" fill="#164450" rx="1.5" style="border-radius:.5em"/><rect width="3" height="4.16" x="59.86" y="42.48" fill="#164450" rx="1.5" style="border-radius:.5em"/><rect width="3" height="10.87" x="67.32" y="39.13" fill="#164450" rx="1.5" style="border-radius:.5em"/><rect width="3" height="18.87" x="74.77" y="35.13" fill="#164450" rx="1.5" style="border-radius:.5em"/><rect width="3" height="21.75" x="82.23" y="33.69" fill="#164450" rx="1.5" style="border-radius:.5em"/><rect width="3" height="18.87" x="89.68" y="35.13" fill="#164450" rx="1.5" style="border-radius:.5em"/><rect width="3" height="15.67" x="97.14" y="37.07" fill="#164450" rx="1.5" style="border-radius:.5em"/><rect width="3" height="18.19" x="104.59" y="35.81" fill="#164450" rx="1.5" style="border-radius:.5em"/><rect width="3" height="31.94" x="112.04" y="28.93" fill="#164450" rx="1.5" style="border-radius:.5em"/><rect width="3" height="44.77" x="119.5" y="22.52" fill="#164450" rx="1.5" style="border-radius:.5em"/><rect width="3" height="26.15" x="126.95" y="31.83" fill="#164450" rx="1.5" style="border-radius:.5em"/><rect width="3" height="40.93" x="134.41" y="24.44" fill="#164450" rx="1.5" style="border-radius:.5em"/><rect width="3" height="28.78" x="141.86" y="30.51" fill="#164450" rx="1.5" style="border-radius:.5em"/><text xml:space="preserve" x="7.83" y="13.03" fill="#fff" stroke-width=".77" font-family="Arial" font-size="13.94" font-weight="400" letter-spacing="-.46" style="-inkscape-font-specification:Arial" transform="scale(.775 1.291)" word-spacing="1.55"><tspan x="7.83" y="13.03">PORTFOLIO D&apos;UN</tspan></text><text xml:space="preserve" x="8.21" y="25.93" fill="#fff" stroke-width=".77" font-family="Arial" font-size="13.94" font-weight="400" letter-spacing="-.46" style="-inkscape-font-specification:Arial" transform="scale(.775 1.291)" word-spacing="1.55"><tspan x="8.21" y="25.93">COMPOSITEUR</tspan></text></g><g><path id="f" fill="#333" fill-opacity="1" stroke="none" stroke-width="17.88" d="M84.16-3.44h2.98v.89h-2.98z" transform="rotate(17.4)"/><rect id="g" width="2.38" height="2.38" x="82.84" y="-4.19" fill="#520" fill-opacity="1" stroke="none" stroke-width="17.88" rx=".89" transform="rotate(17.4)"/><use xlink:href="#f" id="h" x="0" y="0" transform="translate(-.98 3.14)"/><use xlink:href="#g" id="i" x="0" y="0" transform="translate(-.98 3.14)"/><use xlink:href="#f" transform="scale(-1 1) rotate(-34.81 -2.84 295.23)"/><use xlink:href="#g" transform="scale(-1 1) rotate(-34.81 -2.84 295.23)"/><use xlink:href="#h" transform="scale(-1 1) rotate(-34.81 -2.84 295.23)"/><use xlink:href="#i" transform="scale(-1 1) rotate(-34.81 -2.84 295.23)"/><rect width="30.8" height="23.1" x="73.11" y="36.28" fill="#520" rx="11.55" transform="rotate(17.4)"/><rect width="26.18" height="21.56" x="75.42" y="13.83" fill="#520" rx="10.78" transform="rotate(17.4)"/><path fill="#520" d="m69.2 42.93 18.38 5.76-6.91 22.04-18.37-5.76z"/><path fill="#803300" d="M78.12 38.98a10.76 10.76 0 0 0-13.51 7.06c-.94 3-.51 6.09.93 8.6l-1.58 5.05c-3.9.86-7.22 3.72-8.5 7.82a11.52 11.52 0 0 0 7.56 14.47l5.88 1.85a11.52 11.52 0 0 0 14.47-7.57c1.29-4.1.2-8.35-2.51-11.28l1.58-5.04a10.74 10.74 0 0 0 5.68-6.53 10.76 10.76 0 0 0-7.06-13.51z"/><ellipse id="j" cx="83.01" cy="36.78" fill="#000" stroke="none" stroke-width="15.41" rx="1.44" ry="1.39" transform="rotate(17.4)"/><path id="k" fill="#000" stroke="none" stroke-width="15.41" d="M85.99 24.77h1.28v8.22h-1.28z" transform="rotate(25.6)"/><use xlink:href="#j" id="l" x="0" y="0" transform="translate(-5.13 7.1)"/><use xlink:href="#j" transform="scale(-1 1) rotate(-34.81 0 295.62)"/><use xlink:href="#k" transform="scale(-1 1) rotate(-34.81 0 295.62)"/><use xlink:href="#l" transform="scale(-1 1) rotate(-34.81 0 295.62)"/><rect width="15.4" height="9.24" x="87.71" y="24.28" fill="#520" rx="6.93" transform="rotate(34.3)"/><rect width="5.39" height="4.62" x="85.81" y="48.51" rx="2.31" transform="rotate(17.4)"/><rect width="3.08" height="10.78" x="86.97" y="49.4" rx="1.54" transform="rotate(17.4)"/><path d="M88.73 19.3 78.18 55.51c-.3 1.02-2.13 1.35-3.15 1.03-1.02-.32-2.34-1.63-2-2.64l12.02-35.77Z"/><rect width="2.31" height="57.75" x="84.35" y="39.89" fill="#502d16" rx="1.15" transform="rotate(-6.9)"/><path fill="#decd87" d="m86.74 30.85 1.33-.16 6.66 55.04-1.33.16z"/><rect width="4.62" height="2.31" x="82.04" y="39.89" fill="#502d16" rx="1.15" transform="rotate(-6.9)"/><rect width="4.62" height="2.31" x="82.04" y="95.32" fill="#502d16" rx="1.15" transform="rotate(-6.9)"/><path id="m" fill="#decd87" stroke-width="23.1" d="M87.14-5.65h.38v56.21h-.38z" transform="rotate(17.4)"/><use xlink:href="#m" fill="#decd87" transform="translate(.73 .23)"/><use xlink:href="#m" fill="#decd87" transform="translate(1.47 .46)"/><use xlink:href="#m" fill="#decd87" transform="translate(2.2 .7)"/><rect width="6.93" height="6.93" x="52.88" y="-72.29" fill="#803300" rx="2.31" transform="rotate(62.4)"/><rect width="6.16" height="1.54" x="85.43" y="40.16" fill="#decd87" rx=".77" transform="rotate(17.4)"/></g><g><rect width="20.91" height="4.18" x="-6.14" y="40.82" fill="#d3bc5f" rx="2.09" transform="rotate(-11.3)"/><rect width="12.55" height="14.94" x="-1.95" y="42.91" fill="#d3bc5f" rx="2.09" transform="rotate(-11.3)"/><rect width="8.37" height="15.68" x=".14" y="55.42" fill="#d3bc5f" rx="2.09" transform="rotate(-11.3)"/><path fill="#d3bc5f" d="m27.39 53.3-2.4.5a4.17 4.17 0 0 0-3.28 4.92l2.9 14.53c.09.45.52.73.97.64l1.09-.21a.82.82 0 0 0 .65-.98L24.58 59a2.74 2.74 0 0 1 2.15-3.22l1.5-.3c1.48-.3 2.92.66 3.22 2.15l3.73 18.65a2.74 2.74 0 0 1-2.16 3.22l-6.01 1.2a3.8 3.8 0 0 1-4.48-2.98l-4.48-22.43a6.26 6.26 0 0 0-3.79 7.03l3.69 18.46a6.26 6.26 0 0 0 7.38 4.92l8.2-1.64a6.26 6.26 0 0 0 4.93-7.38l-3.7-18.45a6.26 6.26 0 0 0-7.37-4.93z"/><path fill="#decd87" d="M4.03 40.82a2.09 2.09 0 1 0 .82 4.1l.4-.08 1.65-.33L9 55.06a2.09 2.09 0 0 0 2.47 1.64l2.18 10.95c.2.98 1.05 1.66 2.01 1.67l2.29 11.46a6.26 6.26 0 0 0 7.38 4.92l7.08-1.41a6.26 6.26 0 0 0 4.92-7.38l-3.69-18.46a6.25 6.25 0 0 0-7.15-4.96l-1.5.31a4.17 4.17 0 0 0-3.28 4.92l2.9 14.53c.07.35.35.6.68.65.3-.18 1.17-.66 1.1-1.01l-2.73-13.7a2.74 2.74 0 0 1 2.15-3.23l.77-.15.08-.01.07-.02 1.5-.3c1.48-.3 2.92.66 3.22 2.15l3.73 18.65a2.74 2.74 0 0 1-2.16 3.22l-1.64.33-4.37.88-1.64.32a3.8 3.8 0 0 1-4.48-2.98L19 68.65a2.08 2.08 0 0 0 1.2-2.32L18.04 55.4a2.09 2.09 0 0 0 1.64-2.47l-2.1-10.54 1.63-.33.41-.08a2.09 2.09 0 1 0-.82-4.1z"/><rect width="1.57" height="31.37" x="2.06" y="47.1" fill="#e9ddaf" rx=".78" transform="rotate(-11.4)"/><path id="n" fill="#c8ab37" stroke-width="9.44" d="M13.62 67.25h.47v1.89h-.47z" transform="rotate(-11.3)"/><rect id="o" width="1" height="4.02" x="13.36" y="68.2" fill="#d3bc5f" stroke-width="20.09" rx=".5" transform="rotate(-11.3)"/><rect id="p" width="2.01" height="1" x="12.85" y="66.63" fill="#d3bc5f" stroke-width="20.09" rx=".5" transform="rotate(-11.3)"/><use xlink:href="#n" transform="translate(2.3 -.46)"/><use xlink:href="#o" transform="translate(2.3 -.46)"/><use xlink:href="#p" transform="translate(2.3 -.46)"/><use xlink:href="#n" transform="translate(4.6 -.92)"/><use xlink:href="#o" transform="translate(4.6 -.92)"/><use xlink:href="#p" transform="translate(4.6 -.92)"/><use xlink:href="#p" transform="matrix(.347 -1.23 1.23 .347 -78.02 74.96)"/><rect width="8.21" height="9.46" x="10.52" y="69.88" fill="none" stroke="#decd87" stroke-width="1.05" rx="3.46" transform="rotate(-11.3)"/><rect width="7.27" height="4.33" x="11.48" y="71.8" fill="none" stroke="#decd87" stroke-width="1.05" rx="3.06" transform="rotate(-11.3)"/><rect width="15.68" height="1.05" x="10.7" y="63.21" fill="#decd87" rx=".52" transform="rotate(1.6)"/></g><g><path fill="#decd87" d="M119.53 51.71c-.53-1.75 31.01-1.75 30.48 0l-4.55 15.05c-1.98 6.54-19.4 6.54-21.38 0z"/><rect width="39.83" height="2.28" x="114.85" y="51.71" fill="#2b1100" rx="1.14"/><rect width="34.14" height="4.55" x="117.7" y="75.04" fill="#2b1100" rx="2.28"/><rect width="3.41" height="6.26" x="133.06" y="79.03" fill="#2b1100" rx="1.71"/><rect id="r" width="3.41" height="6.83" x="145.87" y="-2.7" fill="#2b1100" fill-opacity="1" stroke="none" stroke-dasharray="none" stroke-opacity="1" stroke-width="1.14" rx="1.71" transform="rotate(33.6)"/><rect id="q" width="2.28" height="27.31" x="133.63" y="51.71" fill="#2b1100" fill-opacity="1" stroke="none" stroke-dasharray="none" stroke-opacity="1" stroke-width="1.14" rx="1.14"/><use xlink:href="#q" fill="#2b1100" transform="rotate(-15 129.44 118.36)"/><use xlink:href="#q" fill="#2b1100" transform="scale(-1 1) rotate(-15 -5.33 1142.04)"/><use xlink:href="#r" fill="#2b1100" transform="matrix(-1 0 0 1 269.54 0)"/><rect width="13.66" height="1.71" x="138.07" y="31.98" fill="#d3bc5f" rx=".85" transform="rotate(6.6)"/><circle cx="138.4" cy="32.84" r="1.94" fill="#483e37" transform="rotate(6.6)"/></g></svg>