<svg xmlns="http://www.w3.org/2000/svg" xmlns:xlink="http://www.w3.org/1999/xlink" xml:space="preserve" style="border-radius:.5em" viewBox="0 0 160 90"><defs><linearGradient id="a"><stop offset="0" stop-color="#ee6511" stop-opacity=".17"/><stop offset="1" stop-color="#fff" stop-opacity="0"/></linearGradient><linearGradient id="c"><stop offset="0" stop-color="#430b62" stop-opacity=".42"/><stop offset="1" stop-color="#430b62" stop-opacity="0"/></linearGradient><linearGradient id="b"><stop offset="0" stop-color="#1d213c"/><stop offset="1" stop-color="#0c0a17"/></linearGradient><linearGradient xlink:href="#a" id="g" x1="73.72" x2="101.85" y1="90" y2=".31" gradientUnits="userSpaceOnUse"/><radialGradient xlink:href="#b" id="d" cx="94.62" cy="107.84" r="80" fx="94.62" fy="107.84" gradientTransform="matrix(1.478 -.71 .543 1.13 -74.22 35.4)" gradientUnits="userSpaceOnUse"/><radialGradient xlink:href="#c" id="f" cx="9.91" cy="-96.04" r="68.15" fx="9.91" fy="-96.04" gradientTransform="matrix(1 0 0 .392 0 -58.37)" gradientUnits="userSpaceOnUse"/></defs><path fill="url(#d)" d="M0 0h160v90H0z"/><g transform="translate(-14.7 -5.13)"><path id="e" fill="#fff" fill-opacity="1" stroke="none" stroke-width="1.62" d="M91.7 111h1.35v1.35H91.7z" transform="rotate(-45)"/><use xlink:href="#e" transform="translate(-78.9 12.7)"/><use xlink:href="#e" transform="translate(-72.5 5.26)"/><use xlink:href="#e" transform="translate(19.7 15.5)"/><use xlink:href="#e" transform="translate(-108 -2.8)"/><use xlink:href="#e" transform="translate(-112 24.4)"/><use xlink:href="#e" transform="translate(24.1 -1.3)"/><use xlink:href="#e" transform="translate(-97.9 7.85)"/><use xlink:href="#e" transform="matrix(.7 0 0 .7 27.1 13.7)"/><use xlink:href="#e" transform="matrix(.7 0 0 .7 35.3 7.2)"/><use xlink:href="#e" transform="matrix(.7 0 0 .7 54.7 19.5)"/><use xlink:href="#e" transform="matrix(.7 0 0 .7 -18.8 .2)"/><use xlink:href="#e" transform="matrix(.7 0 0 .7 18.9 5.62)"/><use xlink:href="#e" transform="matrix(.49 0 0 .49 -28.2 22.4)"/><use xlink:href="#e" transform="matrix(.49 0 0 .49 29.8 7.8)"/><use xlink:href="#e" transform="matrix(.49 0 0 .49 84.8 29.2)"/><use xlink:href="#e" transform="matrix(.49 0 0 .49 55.7 36.6)"/><use xlink:href="#e" transform="matrix(.49 0 0 .49 2.7 27.7)"/><use xlink:href="#e" transform="matrix(.49 0 0 .49 -2 54.1)"/><use xlink:href="#e" transform="matrix(.49 0 0 .49 33.3 62.6)"/><use xlink:href="#e" transform="matrix(.49 0 0 .49 31.1 37.6)"/><use xlink:href="#e" transform="matrix(.49 0 0 .49 -4.3 2.3)"/></g><path fill="url(#f)" d="M-58.24-122.77h136.3v53.46h-136.3z" transform="rotate(125)"/><path fill="url(#g)" d="M0 0h160v90H0z"/><text xml:space="preserve" x="18.78" y="41.4" fill="#f2f2f2" stroke-width=".81" font-family="Arial" font-size="11" letter-spacing="-.48" style="-inkscape-font-specification:Arial" transform="scale(.806 1.24)" word-spacing="1.61"><tspan x="18.78" y="41.4">LE SVG N&apos;EXISTE PAS ENCORE</tspan></text><text xml:space="preserve" x="47.15" y="74.05" fill="#f2f2f2" font-family="Arial" font-size="9" font-weight="400" style="-inkscape-font-specification:Arial"><tspan x="47.15" y="74.05">work in progress</tspan></text></svg>