<svg xmlns="http://www.w3.org/2000/svg" viewBox="0 0 100 100"><path d="M80.11 53.23v7.47h7.48v-7.47zm-.03 14.84.09 5.98 3 3.76-3.08 6.6.01 2.04h2.07l4.7-7.4.68-5.08v-5.9zM49.46 3.72C35.65 14.89 27.96 28.45 24.9 42.77a30.78 30.78 0 0 1 7.24-2.75A59 59 0 0 1 43.34 18.7l9.45 26.7a27.98 27.98 0 0 0-13.43-3.44 27.98 27.98 0 0 0-27.99 27.98 27.98 27.98 0 0 0 26.1 27.92l3.19-6.99a20.99 20.99 0 0 1-1.3.06 20.99 20.99 0 0 1-21-20.99 20.99 20.99 0 0 1 21-20.99 20.99 20.99 0 0 1 18.88 11.83l1.55 4.4a20.99 20.99 0 0 1 .55 4.76c-.75 2.7-4.95 4.86-10.31 5.3v1.48H75.2a3.61 3.61 0 0 0-.05-.16zm-19.59 49.9a18.89 18.89 0 0 0-6.5 6.27c.14 5.62.87 11.26 2.12 16.82h8.25a52.9 52.9 0 0 1-3.87-23.09Z"/></svg>