<svg xmlns="http://www.w3.org/2000/svg" xmlns:xlink="http://www.w3.org/1999/xlink" xml:space="preserve" style="border-radius:.5em" viewBox="0 0 160 90"><defs><linearGradient id="a"><stop offset="0" stop-color="#ee6511" stop-opacity=".17"/><stop offset="1" stop-color="#fff" stop-opacity="0"/></linearGradient><linearGradient id="c"><stop offset="0" stop-color="#430b62" stop-opacity=".42"/><stop offset="1" stop-color="#430b62" stop-opacity="0"/></linearGradient><linearGradient id="b"><stop offset="0" stop-color="#1d213c"/><stop offset="1" stop-color="#0c0a17"/></linearGradient></defs><path fill="#c87137" d="M0 0h160v90H0z" style="border-radius:.5em"/><rect id="d" width="80" height="5" x="-12.79" y="24.85" fill="#a05a2c" fill-opacity="1" stroke-width="14.46" display="inline" rx="2.5"/><use xlink:href="#d" transform="translate(127.92 57.14)"/><use xlink:href="#d" transform="translate(8.6 31.49)"/><use xlink:href="#d" transform="translate(101.83 15.08)"/><use xlink:href="#d" transform="translate(32.27 15.08)"/><use xlink:href="#d" transform="translate(114.06 -7.69)"/><use xlink:href="#d" transform="translate(7.49 -17.92)"/><rect id="e" width="25" height="10" x="21.57" y="22.17" fill="#a05a2c" fill-opacity="1" stroke-width="14.46" rx="5"/><rect id="f" width="13.73" height="5" x="27.21" y="24.85" fill="#784421" fill-opacity="1" stroke-width="14.46" rx="2.5"/><use xlink:href="#e" transform="matrix(1.333 0 0 1 83.64 15.08)"/><use xlink:href="#f" transform="matrix(1.333 0 0 1 83.64 15.08)"/><text xml:space="preserve" x="98.31" y="53.88" fill="#c8b7b7" stroke-dasharray="1.60997,1.60997" stroke-width=".54" font-family="Arial" font-size="16.99" font-stretch="condensed" letter-spacing="-.54" style="-inkscape-font-specification:&quot;Arial Condensed&quot;;text-align:start" transform="scale(.894 1.118)" word-spacing="1.79"><tspan x="98.31" y="53.88" fill="#f2f2f2">CE</tspan></text><text xml:space="preserve" x="97.89" y="70.05" fill="#f2f2f2" stroke-dasharray="1.60997,1.60997" stroke-width=".54" font-family="Arial" font-size="16.99" font-stretch="condensed" letter-spacing="-.54" style="-inkscape-font-specification:&quot;Arial Condensed&quot;;text-align:start" transform="scale(.894 1.118)" word-spacing="1.79"><tspan x="97.89" y="70.05">PORTFOLIO</tspan></text><path fill="#decd87" d="m124.13 53.65 6.44 4.5 1.37-3.6z"/><path fill="#e9ddaf" d="m125.86 53.97 5.71 1.27-.02.3-5.7-1.27zM125.64 54.57l5.12 2.83.18-.24-5.12-2.83z"/><rect width="36.93" height=".96" x="142.14" y="7.15" fill="#d45500" rx=".48" transform="rotate(20.8)"/><rect width="36.93" height=".96" x="142.14" y="4.25" fill="#d45500" rx=".48" transform="rotate(20.8)"/><rect width="36.93" height="1.93" x="142.14" y="5.22" fill="#484537" rx=".48" transform="rotate(20.8)"/><path fill="#484537" d="M126.23 53.81a2.08 2.08 0 0 0-.53-.13l-1.35-.11c-.31-.03-.36.1-.1.3l1.07.8c.13.1.3.19.5.26z"/><g style="border-radius:.5em" transform="rotate(-4.8)"><rect width="65.77" height="71.79" x="8.94" y="64.09" fill="#f4eed7" rx="1"/><ellipse cx="48.98" cy="91.98" fill="none" stroke="#ac9393" stroke-dasharray="3.2,3.2" stroke-width=".8" rx="19.73" ry="19.87"/><ellipse cx="42.74" cy="88.68" fill="none" stroke="#ac9393" stroke-dasharray="3.2,3.2" stroke-width=".8" rx="12.69" ry="12.78"/><rect width="55.24" height="41.09" x="13.56" y="71.91" fill="none" stroke="#ac9393" stroke-width=".4" rx="1"/><rect width="5.58" height="35.41" x="20.3" y="72.01" fill="none" stroke="#ac9393" stroke-dasharray="1.8,1.8" stroke-width=".6" rx=".99"/><rect width="13.89" height="39.89" x="11.66" y="70.01" fill="#f4eed7" rx="1.1"/><rect width="6" height="2" x="13.18" y="74.5" fill="#c8b7b7" rx="1"/><rect width="2" height="2" x="20.09" y="74.5" fill="#c8b7b7" rx="1"/><rect width="7" height="2" x="16.18" y="78.72" fill="#c8b7b7" rx="1"/><rect width="4" height="2" x="13.18" y="83.87" fill="#c8b7b7" rx="1"/><rect width="4" height="2" x="19.09" y="83.87" fill="#c8b7b7" rx="1"/><rect width="6" height="2" x="56.87" y="82.45" fill="#c8b7b7" rx="1"/><rect width="9.62" height="3.21" x="37.71" y="67.55" fill="#c8b7b7" rx="1.6"/><rect width="2" height="2" x="62.87" y="90.97" fill="#c8b7b7" rx="1"/><rect width="7" height="2" x="40.52" y="89.72" fill="#c8b7b7" rx="1"/><rect width="7" height="2" x="56.77" y="87.14" fill="#c8b7b7" rx="1"/><rect width="4" height="2" x="57.11" y="90.97" fill="#c8b7b7" rx="1"/><rect width="4" height="2" x="40.52" y="86.51" fill="#c8b7b7" rx="1"/><rect width="4" height="2" x="64.71" y="87.14" fill="#c8b7b7" rx="1"/></g><g style="border-radius:.5em"><rect width="97.38" height="46.09" x="58.02" y="1.6" fill="#483e37" rx="3" transform="rotate(-5)"/><rect width="28.63" height="21.68" x="86.96" y="21.79" fill="none" stroke="#6c5d53" stroke-width=".51" rx="3" transform="rotate(-5)"/><rect id="g" width="5.2" height="5.2" x="63.62" y="11.2" fill="#241f1c" fill-opacity="1" stroke="none" stroke-dasharray="none" stroke-opacity="1" stroke-width=".5" rx="1" transform="rotate(-5)"/><rect width="28.7" height="5.2" x="87.4" y="11.2" fill="#241f1c" rx="1" transform="rotate(-5)"/><rect id="h" width="1.8" height="1.2" x="65.32" y="13.2" fill="#6c5d53" fill-opacity="1" stroke="none" stroke-dasharray="none" stroke-opacity="1" stroke-width=".3" rx=".6" transform="rotate(-5)"/><use xlink:href="#g" transform="translate(5.92 -.52)"/><use xlink:href="#h" transform="translate(5.92 -.52)"/><use xlink:href="#g" transform="translate(11.84 -1.04)"/><use xlink:href="#g" transform="translate(17.77 -1.56)"/><use xlink:href="#h" transform="translate(17.77 -1.56)"/><use xlink:href="#g" transform="translate(53.02 -4.64)"/><use xlink:href="#h" transform="translate(53.02 -4.64)"/><use xlink:href="#g" transform="translate(58.95 -5.16)"/><use xlink:href="#h" transform="translate(58.95 -5.16)"/><use xlink:href="#g" transform="translate(64.87 -5.68)"/><use xlink:href="#h" transform="translate(64.87 -5.68)"/><use xlink:href="#g" transform="translate(70.79 -6.2)"/><use xlink:href="#h" transform="translate(70.79 -6.2)"/><use xlink:href="#g" transform="translate(76.71 -6.72)"/><use xlink:href="#h" transform="translate(76.71 -6.72)"/><use xlink:href="#g" transform="translate(82.63 -7.23)"/><use xlink:href="#h" transform="translate(82.63 -7.23)"/><rect width="7.64" height="5.2" x="63.62" y="5.14" fill="#241f1c" rx="1" transform="rotate(-5)"/><use xlink:href="#h" transform="translate(.69 -6.14)"/><use xlink:href="#g" transform="translate(7.83 -6.77)"/><use xlink:href="#h" transform="translate(7.83 -6.77)"/><use xlink:href="#g" transform="translate(13.75 -7.29)"/><use xlink:href="#h" transform="translate(13.75 -7.29)"/><use xlink:href="#g" transform="translate(19.67 -7.8)"/><use xlink:href="#h" transform="translate(19.67 -7.8)"/><use xlink:href="#g" transform="translate(25.6 -8.32)"/><use xlink:href="#h" transform="translate(25.6 -8.32)"/><use xlink:href="#g" transform="translate(31.52 -8.84)"/><use xlink:href="#g" transform="translate(37.44 -9.36)"/><use xlink:href="#g" transform="translate(43.36 -9.88)"/><use xlink:href="#g" transform="translate(49.28 -10.4)"/><rect width="3.02" height="3.02" x="76.59" y="12.29" fill="#6c5d53" rx="1" transform="rotate(-5)"/><rect width="25.1" height="50.21" x="-6.62" y="12.69" fill="#241f1c" stroke="#6c5d53" stroke-width=".8" rx="3" transform="rotate(-8.7)"/><circle cx="5.93" cy="14.59" r=".71" transform="rotate(-8.7)"/><rect width=".14" height="6.7" x="18.78" y="21.85" fill="#241f1c" stroke="#6c5d53" stroke-width=".8" rx=".7" transform="rotate(-8.7)"/><rect width=".14" height="3.35" x="18.78" y="30.95" fill="#241f1c" stroke="#6c5d53" stroke-width=".8" rx=".7" transform="rotate(-8.7)"/></g></svg>